<?xml version="1.0" encoding="UTF-8" standalone="no"?>
<!-- Created with Inkscape (http://www.inkscape.org/) -->

<svg
   xmlns:dc="http://purl.org/dc/elements/1.1/"
   xmlns:cc="http://creativecommons.org/ns#"
   xmlns:rdf="http://www.w3.org/1999/02/22-rdf-syntax-ns#"
   xmlns:svg="http://www.w3.org/2000/svg"
   xmlns="http://www.w3.org/2000/svg"
   xmlns:sodipodi="http://sodipodi.sourceforge.net/DTD/sodipodi-0.dtd"
   xmlns:inkscape="http://www.inkscape.org/namespaces/inkscape"
   version="1.1"
   width="900"
   height="800"
   id="svg2"
   xml:space="preserve"
   inkscape:version="0.48.3.1 r9886"
   sodipodi:docname="dns-qps.svg"><sodipodi:namedview
   pagecolor="#ffffff"
   bordercolor="#666666"
   borderopacity="1"
   objecttolerance="10"
   gridtolerance="10"
   guidetolerance="10"
   inkscape:pageopacity="0"
   inkscape:pageshadow="2"
   inkscape:window-width="1011"
   inkscape:window-height="637"
   id="namedview5817"
   showgrid="false"
   inkscape:zoom="0.59"
   inkscape:cx="400"
   inkscape:cy="400"
   inkscape:window-x="228"
   inkscape:window-y="59"
   inkscape:window-maximized="0"
   inkscape:current-layer="svg2" /><metadata
   id="metadata8"><rdf:RDF><cc:Work
       rdf:about=""><dc:format>image/svg+xml</dc:format><dc:type
         rdf:resource="http://purl.org/dc/dcmitype/StillImage" /><dc:title /></cc:Work></rdf:RDF></metadata><defs
   id="defs6" /><path
   d="m 98.87281,389.97232 5.30126,0"
   id="path3591"
   style="fill:none;stroke:#000000;stroke-width:0.88354367;stroke-linecap:butt;stroke-linejoin:miter;stroke-miterlimit:10;stroke-opacity:1;stroke-dasharray:none"
   inkscape:connector-curvature="0" /><text
   x="73.377274"
   y="395.80371"
   id="text3593"
   style="font-size:1.06025243px"><tspan
     x="73.377274"
     y="395.80371"
     id="tspan3595"
     style="font-size:22.97213745px;font-variant:normal;font-weight:normal;writing-mode:lr-tb;fill:#000000;fill-opacity:1;fill-rule:nonzero;stroke:none;font-family:Helvetica;-inkscape-font-specification:Helvetica">0</tspan></text>


<path
   d="m 98.87281,358.87158 5.30126,0"
   id="path3597"
   style="fill:none;stroke:#000000;stroke-width:0.88354367;stroke-linecap:butt;stroke-linejoin:miter;stroke-miterlimit:10;stroke-opacity:1;stroke-dasharray:none"
   inkscape:connector-curvature="0" /><text
   x="60.604759"
   y="364.70297"
   id="text3599"
   style="font-size:1.06025243px"><tspan
     x="60.604759 73.377274"
     y="364.70297"
     id="tspan3601"
     style="font-size:22.97213745px;font-variant:normal;font-weight:normal;writing-mode:lr-tb;fill:#000000;fill-opacity:1;fill-rule:nonzero;stroke:none;font-family:Helvetica;-inkscape-font-specification:Helvetica">10</tspan></text>


<path
   d="m 98.87281,327.77084 5.30126,0"
   id="path3603"
   style="fill:none;stroke:#000000;stroke-width:0.88354367;stroke-linecap:butt;stroke-linejoin:miter;stroke-miterlimit:10;stroke-opacity:1;stroke-dasharray:none"
   inkscape:connector-curvature="0" /><text
   x="60.604759"
   y="333.60223"
   id="text3605"
   style="font-size:1.06025243px"><tspan
     x="60.604759 73.377274"
     y="333.60223"
     id="tspan3607"
     style="font-size:22.97213745px;font-variant:normal;font-weight:normal;writing-mode:lr-tb;fill:#000000;fill-opacity:1;fill-rule:nonzero;stroke:none;font-family:Helvetica;-inkscape-font-specification:Helvetica">20</tspan></text>


<path
   d="m 98.87281,296.6701 5.30126,0"
   id="path3609"
   style="fill:none;stroke:#000000;stroke-width:0.88354367;stroke-linecap:butt;stroke-linejoin:miter;stroke-miterlimit:10;stroke-opacity:1;stroke-dasharray:none"
   inkscape:connector-curvature="0" /><text
   x="60.604759"
   y="302.5015"
   id="text3611"
   style="font-size:1.06025243px"><tspan
     x="60.604759 73.377274"
     y="302.5015"
     id="tspan3613"
     style="font-size:22.97213745px;font-variant:normal;font-weight:normal;writing-mode:lr-tb;fill:#000000;fill-opacity:1;fill-rule:nonzero;stroke:none;font-family:Helvetica;-inkscape-font-specification:Helvetica">30</tspan></text>


<path
   d="m 98.87281,265.56937 5.30126,0"
   id="path3615"
   style="fill:none;stroke:#000000;stroke-width:0.88354367;stroke-linecap:butt;stroke-linejoin:miter;stroke-miterlimit:10;stroke-opacity:1;stroke-dasharray:none"
   inkscape:connector-curvature="0" /><text
   x="60.604759"
   y="271.40076"
   id="text3617"
   style="font-size:1.06025243px"><tspan
     x="60.604759 73.377274"
     y="271.40076"
     id="tspan3619"
     style="font-size:22.97213745px;font-variant:normal;font-weight:normal;writing-mode:lr-tb;fill:#000000;fill-opacity:1;fill-rule:nonzero;stroke:none;font-family:Helvetica;-inkscape-font-specification:Helvetica">40</tspan></text>


<path
   d="m 98.87281,234.55699 5.30126,0"
   id="path3621"
   style="fill:none;stroke:#000000;stroke-width:0.88354367;stroke-linecap:butt;stroke-linejoin:miter;stroke-miterlimit:10;stroke-opacity:1;stroke-dasharray:none"
   inkscape:connector-curvature="0" /><text
   x="60.604759"
   y="240.38838"
   id="text3623"
   style="font-size:1.06025243px"><tspan
     x="60.604759 73.377274"
     y="240.38838"
     id="tspan3625"
     style="font-size:22.97213745px;font-variant:normal;font-weight:normal;writing-mode:lr-tb;fill:#000000;fill-opacity:1;fill-rule:nonzero;stroke:none;font-family:Helvetica;-inkscape-font-specification:Helvetica">50</tspan></text>


<path
   d="m 98.87281,203.45625 5.30126,0"
   id="path3627"
   style="fill:none;stroke:#000000;stroke-width:0.88354367;stroke-linecap:butt;stroke-linejoin:miter;stroke-miterlimit:10;stroke-opacity:1;stroke-dasharray:none"
   inkscape:connector-curvature="0" /><text
   x="60.604759"
   y="209.28764"
   id="text3629"
   style="font-size:1.06025243px"><tspan
     x="60.604759 73.377274"
     y="209.28764"
     id="tspan3631"
     style="font-size:22.97213745px;font-variant:normal;font-weight:normal;writing-mode:lr-tb;fill:#000000;fill-opacity:1;fill-rule:nonzero;stroke:none;font-family:Helvetica;-inkscape-font-specification:Helvetica">60</tspan></text>


<path
   d="m 98.87281,172.35551 5.30126,0"
   id="path3633"
   style="fill:none;stroke:#000000;stroke-width:0.88354367;stroke-linecap:butt;stroke-linejoin:miter;stroke-miterlimit:10;stroke-opacity:1;stroke-dasharray:none"
   inkscape:connector-curvature="0" /><text
   x="60.604759"
   y="178.18689"
   id="text3635"
   style="font-size:1.06025243px"><tspan
     x="60.604759 73.377274"
     y="178.18689"
     id="tspan3637"
     style="font-size:22.97213745px;font-variant:normal;font-weight:normal;writing-mode:lr-tb;fill:#000000;fill-opacity:1;fill-rule:nonzero;stroke:none;font-family:Helvetica;-inkscape-font-specification:Helvetica">70</tspan></text>


<path
   d="m 98.87281,141.25476 5.30126,0"
   id="path3639"
   style="fill:none;stroke:#000000;stroke-width:0.88354367;stroke-linecap:butt;stroke-linejoin:miter;stroke-miterlimit:10;stroke-opacity:1;stroke-dasharray:none"
   inkscape:connector-curvature="0" /><text
   x="60.604759"
   y="147.08617"
   id="text3641"
   style="font-size:1.06025243px"><tspan
     x="60.604759 73.377274"
     y="147.08617"
     id="tspan3643"
     style="font-size:22.97213745px;font-variant:normal;font-weight:normal;writing-mode:lr-tb;fill:#000000;fill-opacity:1;fill-rule:nonzero;stroke:none;font-family:Helvetica;-inkscape-font-specification:Helvetica">80</tspan></text>


<text
   x="142.81143"
   y="422.66342"
   id="text3645"
   style="font-size:1.06025243px"><tspan
     x="142.81143 155.58395 168.35645"
     y="422.66342"
     id="tspan3647"
     style="font-size:22.97213745px;font-variant:normal;font-weight:normal;writing-mode:lr-tb;fill:#000000;fill-opacity:1;fill-rule:nonzero;stroke:none;font-family:Helvetica;-inkscape-font-specification:Helvetica">100</tspan></text>


<text
   x="293.16583"
   y="422.66342"
   id="text3649"
   style="font-size:1.06025243px"><tspan
     x="293.16583 305.93835 318.71088 331.48334"
     y="422.66342"
     id="tspan3651"
     style="font-size:22.97213745px;font-variant:normal;font-weight:normal;writing-mode:lr-tb;fill:#000000;fill-opacity:1;fill-rule:nonzero;stroke:none;font-family:Helvetica;-inkscape-font-specification:Helvetica">1000</tspan></text>


<text
   x="443.60855"
   y="422.66342"
   id="text3653"
   style="font-size:1.06025243px"><tspan
     x="443.60855 456.3811 469.15363 481.92612 494.69864"
     y="422.66342"
     id="tspan3655"
     style="font-size:22.97213745px;font-variant:normal;font-weight:normal;writing-mode:lr-tb;fill:#000000;fill-opacity:1;fill-rule:nonzero;stroke:none;font-family:Helvetica;-inkscape-font-specification:Helvetica">10000</tspan></text>


<path
   d="m 98.87281,141.25476 0,248.71756 470.31032,0"
   id="path3657"
   style="fill:none;stroke:#000000;stroke-width:0.88354367;stroke-linecap:butt;stroke-linejoin:miter;stroke-miterlimit:10;stroke-opacity:1;stroke-dasharray:none"
   inkscape:connector-curvature="0" /><g
   transform="matrix(0.08835436,0,0,-0.08835436,2.0364187,497.41124)"
   id="g3661"><g
     transform="matrix(0,1,-1,0,363,1143)"
     id="g3663"><text
   transform="scale(1,-1)"
   id="text3665"><tspan
     x="0 158.86 303.42001 390 534.56 679.12 823.67999 968.23999 1112.8 1257.36 1329.64 1401.92 1488.5 1575.08 1719.64 1864.2 1994.2 2066.48 2196.48 2268.76 2398.76 2471.04 2615.6001"
     y="0"
     id="tspan3667"
     style="font-size:260px;font-variant:normal;font-weight:normal;writing-mode:lr-tb;fill:#000000;fill-opacity:1;fill-rule:nonzero;stroke:none;font-family:Helvetica;-inkscape-font-specification:Helvetica">Throughput (reqs/s x 10</tspan></text>


</g><g
     transform="matrix(0,1,-1,0,219,3903)"
     id="g3669"><text
   transform="scale(1,-1)"
   id="text3671"><tspan
     x="0"
     y="0"
     id="tspan3673"
     style="font-size:208px;font-variant:normal;font-weight:normal;writing-mode:lr-tb;fill:#000000;fill-opacity:1;fill-rule:nonzero;stroke:none;font-family:Helvetica;-inkscape-font-specification:Helvetica">3</tspan></text>


</g><g
     transform="matrix(0,1,-1,0,346,4018)"
     id="g3675"><text
   transform="scale(1,-1)"
   id="text3677"><tspan
     x="0"
     y="0"
     id="tspan3679"
     style="font-size:260px;font-variant:normal;font-weight:normal;writing-mode:lr-tb;fill:#000000;fill-opacity:1;fill-rule:nonzero;stroke:none;font-family:Helvetica;-inkscape-font-specification:Helvetica">)</tspan></text>


</g></g><text
   x="238.87917"
   y="460.3024"
   id="text3681"
   style="font-size:1.06025243px"><tspan
     x="238.87917 252.91512 265.68762 278.46014 291.23264 297.6189 309.10498 314.20477 325.69086 338.46338 344.84961 352.49936 365.27182 378.04431 384.4306 392.08032 397.18011 409.95264 421.43869"
     y="460.3024"
     id="tspan3683"
     style="font-size:22.97213745px;font-variant:normal;font-weight:normal;writing-mode:lr-tb;fill:#000000;fill-opacity:1;fill-rule:nonzero;stroke:none;font-family:Helvetica;-inkscape-font-specification:Helvetica">Zone size (entries)</tspan><tspan
     x="676.26855 691.591 696.69086 709.46338 722.23584 735.00836 741.39465 747.78082 760.55334 765.65314 778.42572 791.19818"
     y="204.33978"
     id="tspan3685"
     style="font-size:22.97213745px;font-variant:normal;font-weight:normal;writing-mode:lr-tb;fill:#000000;fill-opacity:1;fill-rule:nonzero;stroke:none;font-family:Helvetica;-inkscape-font-specification:Helvetica">Bind9, Linux</tspan></text>


<g
   transform="matrix(0.08835436,0,0,-0.08835436,2.0364187,497.41124)"
   id="g3687"><path
     d="m 6851,3307 636,0 0,152 -636,0 0,-152"
     id="path3689"
     style="fill:#e08fc2;fill-opacity:1;fill-rule:nonzero;stroke:none"
     inkscape:connector-curvature="0" /></g><path
   d="m 607.35222,205.22334 56.19338,0 0,-13.42987 -56.19338,0 0,13.42987"
   id="path3691"
   style="fill:none;stroke:#cc4499;stroke-width:0.88354367;stroke-linecap:butt;stroke-linejoin:miter;stroke-miterlimit:10;stroke-opacity:1;stroke-dasharray:none"
   inkscape:connector-curvature="0" /><g
   transform="matrix(0.08835436,0,0,-0.08835436,2.0364187,497.41124)"
   id="g3693"><path
     d="m 1320,1216 178,0 0,1015 -178,0 0,-1015"
     id="path3695"
     style="fill:#e08fc2;fill-opacity:1;fill-rule:nonzero;stroke:none"
     inkscape:connector-curvature="0" /></g><path
   d="m 118.66418,389.97232 0,-89.59134 15.63873,0 0,89.59134 -15.63873,0"
   id="path3697"
   style="fill:none;stroke:#cc4499;stroke-width:0.88354367;stroke-linecap:butt;stroke-linejoin:miter;stroke-miterlimit:10;stroke-opacity:1;stroke-dasharray:none"
   inkscape:connector-curvature="0" /><g
   transform="matrix(0.08835436,0,0,-0.08835436,2.0364187,497.41124)"
   id="g3699"><path
     d="m 3094,1216 178,0 0,1846 -178,0 0,-1846"
     id="path3701"
     style="fill:#e08fc2;fill-opacity:1;fill-rule:nonzero;stroke:none"
     inkscape:connector-curvature="0" /></g><path
   d="m 275.40484,389.97232 0,-163.01381 15.63872,0 0,163.01381 -15.63872,0"
   id="path3703"
   style="fill:none;stroke:#cc4499;stroke-width:0.88354367;stroke-linecap:butt;stroke-linejoin:miter;stroke-miterlimit:10;stroke-opacity:1;stroke-dasharray:none"
   inkscape:connector-curvature="0" /><g
   transform="matrix(0.08835436,0,0,-0.08835436,2.0364187,497.41124)"
   id="g3705"><path
     d="m 4868,1216 179,0 0,1841 -179,0 0,-1841"
     id="path3707"
     style="fill:#e08fc2;fill-opacity:1;fill-rule:nonzero;stroke:none"
     inkscape:connector-curvature="0" /></g><path
   d="m 432.1455,389.97232 0,-162.57204 15.72707,0 0,162.57204 -15.72707,0 m -305.70612,-88.61943 0,-1.9438 m -2.65064,1.9438 5.30127,0 m -5.30127,-1.9438 5.30127,0 m 154.17838,-69.09311 0,-6.71493 m -2.65064,6.71493 5.30126,0 m -5.30126,-6.71493 5.30126,0 m 154.09003,6.89163 0,-6.27316 m -2.65063,6.27316 5.30125,0 m -5.30125,-6.27316 5.30125,0"
   id="path3709"
   style="fill:none;stroke:#cc4499;stroke-width:0.88354367;stroke-linecap:butt;stroke-linejoin:miter;stroke-miterlimit:10;stroke-opacity:1;stroke-dasharray:none"
   inkscape:connector-curvature="0" /><text
   x="676.26862"
   y="231.19951"
   id="text3711"
   style="font-size:1.06025243px"><tspan
     x="676.26862 692.85449 708.17694 724.76282 731.14905 737.53522 750.30786 755.40765 768.18018 780.95264"
     y="231.19951"
     id="tspan3713"
     style="font-size:22.97213745px;font-variant:normal;font-weight:normal;writing-mode:lr-tb;fill:#000000;fill-opacity:1;fill-rule:nonzero;stroke:none;font-family:Helvetica;-inkscape-font-specification:Helvetica">NSD, Linux</tspan></text>


<g
   transform="matrix(0.08835436,0,0,-0.08835436,2.0364187,497.41124)"
   id="g3715"><path
     d="m 6851,3003 636,0 0,152 -636,0 0,-152"
     id="path3717"
     style="fill:#b8e0f5;fill-opacity:1;fill-rule:nonzero;stroke:none"
     inkscape:connector-curvature="0" /></g><path
   d="m 607.35222,232.08307 56.19338,0 0,-13.42987 -56.19338,0 0,13.42987"
   id="path3719"
   style="fill:none;stroke:#88ccee;stroke-width:0.88354367;stroke-linecap:butt;stroke-linejoin:miter;stroke-miterlimit:10;stroke-opacity:1;stroke-dasharray:none"
   inkscape:connector-curvature="0" /><g
   transform="matrix(0.08835436,0,0,-0.08835436,2.0364187,497.41124)"
   id="g3721"><path
     d="m 1502,1216 178,0 0,2343 -178,0 0,-2343"
     id="path3723"
     style="fill:#b8e0f5;fill-opacity:1;fill-rule:nonzero;stroke:none"
     inkscape:connector-curvature="0" /></g><path
   d="m 134.74468,389.97232 0,-206.92593 15.63872,0 0,206.92593 -15.63872,0"
   id="path3725"
   style="fill:none;stroke:#88ccee;stroke-width:0.88354367;stroke-linecap:butt;stroke-linejoin:miter;stroke-miterlimit:10;stroke-opacity:1;stroke-dasharray:none"
   inkscape:connector-curvature="0" /><g
   transform="matrix(0.08835436,0,0,-0.08835436,2.0364187,497.41124)"
   id="g3727"><path
     d="m 3276,1216 179,0 0,2334 -179,0 0,-2334"
     id="path3729"
     style="fill:#b8e0f5;fill-opacity:1;fill-rule:nonzero;stroke:none"
     inkscape:connector-curvature="0" /></g><path
   d="m 291.48534,389.97232 0,-206.13076 15.72707,0 0,206.13076 -15.72707,0"
   id="path3731"
   style="fill:none;stroke:#88ccee;stroke-width:0.88354367;stroke-linecap:butt;stroke-linejoin:miter;stroke-miterlimit:10;stroke-opacity:1;stroke-dasharray:none"
   inkscape:connector-curvature="0" /><g
   transform="matrix(0.08835436,0,0,-0.08835436,2.0364187,497.41124)"
   id="g3733"><path
     d="m 5051,1216 178,0 0,2319 -178,0 0,-2319"
     id="path3735"
     style="fill:#b8e0f5;fill-opacity:1;fill-rule:nonzero;stroke:none"
     inkscape:connector-curvature="0" /></g><path
   d="m 448.31435,389.97232 0,-204.80543 15.63872,0 0,204.80543 -15.63872,0 m -305.70612,-204.89378 0,-3.97594 m -2.65064,3.97594 5.30126,0 m -5.30126,-3.97594 5.30126,0 m 154.09003,3.62251 0,-1.76707 m -2.65063,1.76707 5.30125,0 m -5.30125,-1.76707 5.30125,0 m 154.09004,3.26909 0,-2.20885 m -2.65064,2.20885 5.30126,0 m -5.30126,-2.20885 5.30126,0"
   id="path3737"
   style="fill:none;stroke:#88ccee;stroke-width:0.88354367;stroke-linecap:butt;stroke-linejoin:miter;stroke-miterlimit:10;stroke-opacity:1;stroke-dasharray:none"
   inkscape:connector-curvature="0" /><text
   x="676.26862"
   y="258.05927"
   id="text3739"
   style="font-size:1.06025243px"><tspan
     x="676.26862 692.85449 708.17694 724.76282 731.14905 737.53522 756.67102 761.77094 774.54333 779.64319 797.5155 812.83789 819.22418 826.87396"
     y="258.05927"
     id="tspan3741"
     style="font-size:22.97213745px;font-variant:normal;font-weight:normal;writing-mode:lr-tb;fill:#000000;fill-opacity:1;fill-rule:nonzero;stroke:none;font-family:Helvetica;-inkscape-font-specification:Helvetica">NSD, MiniOS -O</tspan></text>


<g
   transform="matrix(0.08835436,0,0,-0.08835436,2.0364187,497.41124)"
   id="g3743"><path
     d="m 6851,2699 636,0 0,152 -636,0 0,-152"
     id="path3745"
     style="fill:#d8d8d8;fill-opacity:1;fill-rule:nonzero;stroke:none"
     inkscape:connector-curvature="0" /></g><path
   d="m 607.35222,258.94279 56.19338,0 0,-13.42986 -56.19338,0 0,13.42986"
   id="path3747"
   style="fill:none;stroke:#bebebe;stroke-width:1.32531559;stroke-linecap:butt;stroke-linejoin:miter;stroke-miterlimit:10;stroke-opacity:1;stroke-dasharray:none"
   inkscape:connector-curvature="0" /><g
   transform="matrix(0.08835436,0,0,-0.08835436,2.0364187,497.41124)"
   id="g3749"><path
     d="m 1682,1216 178,0 0,910 -178,0 0,-910"
     id="path3751"
     style="fill:#d8d8d8;fill-opacity:1;fill-rule:nonzero;stroke:none"
     inkscape:connector-curvature="0" /></g><path
   d="m 150.64847,389.97232 0,-80.31412 15.63872,0 0,80.31412 -15.63872,0"
   id="path3753"
   style="fill:none;stroke:#bebebe;stroke-width:1.32531559;stroke-linecap:butt;stroke-linejoin:miter;stroke-miterlimit:10;stroke-opacity:1;stroke-dasharray:none"
   inkscape:connector-curvature="0" /><g
   transform="matrix(0.08835436,0,0,-0.08835436,2.0364187,497.41124)"
   id="g3755"><path
     d="m 3456,1216 179,0 0,969 -179,0 0,-969"
     id="path3757"
     style="fill:#d8d8d8;fill-opacity:1;fill-rule:nonzero;stroke:none"
     inkscape:connector-curvature="0" /></g><path
   d="m 307.38913,389.97232 0,-85.52703 15.72707,0 0,85.52703 -15.72707,0"
   id="path3759"
   style="fill:none;stroke:#bebebe;stroke-width:1.32531559;stroke-linecap:butt;stroke-linejoin:miter;stroke-miterlimit:10;stroke-opacity:1;stroke-dasharray:none"
   inkscape:connector-curvature="0" /><g
   transform="matrix(0.08835436,0,0,-0.08835436,2.0364187,497.41124)"
   id="g3761"><path
     d="m 5231,1216 178,0 0,1109 -178,0 0,-1109"
     id="path3763"
     style="fill:#d8d8d8;fill-opacity:1;fill-rule:nonzero;stroke:none"
     inkscape:connector-curvature="0" /></g><path
   d="m 464.21814,389.97232 0,-97.89664 15.63872,0 0,97.89664 -15.63872,0 m -305.70613,-66.35414 0,-27.83162 m -2.65063,27.83162 5.30126,0 m -5.30126,-27.83162 5.30126,0 m 154.09003,22.70708 0,-28.09669 m -2.65063,28.09669 5.30125,0 m -5.30125,-28.09669 5.30125,0 m 154.09003,15.90379 0,-28.36176 m -2.65063,28.36176 5.30126,0 m -5.30126,-28.36176 5.30126,0"
   id="path3765"
   style="fill:none;stroke:#bebebe;stroke-width:1.32531559;stroke-linecap:butt;stroke-linejoin:miter;stroke-miterlimit:10;stroke-opacity:1;stroke-dasharray:none"
   inkscape:connector-curvature="0" /><text
   x="676.26862"
   y="284.91898"
   id="text3767"
   style="font-size:1.06025243px"><tspan
     x="676.26862 692.85449 708.17694 724.76282 731.14905 737.53522 756.67102 761.77094 774.54333 779.64319 797.5155 812.83789 819.22418 826.87396 844.74622"
     y="284.91898"
     id="tspan3769"
     style="font-size:22.97213745px;font-variant:normal;font-weight:normal;writing-mode:lr-tb;fill:#000000;fill-opacity:1;fill-rule:nonzero;stroke:none;font-family:Helvetica;-inkscape-font-specification:Helvetica">NSD, MiniOS -O3</tspan></text>


<g
   transform="matrix(0.08835436,0,0,-0.08835436,2.0364187,497.41124)"
   id="g3771"><path
     d="m 6851,2395 636,0 0,152 -636,0 0,-152"
     id="path3773"
     style="fill:#666666;fill-opacity:1;fill-rule:nonzero;stroke:none"
     inkscape:connector-curvature="0" /></g><path
   d="m 607.35222,285.80252 56.19338,0 0,-13.42986 -56.19338,0 0,13.42986"
   id="path3775"
   style="fill:none;stroke:#000000;stroke-width:1.32531559;stroke-linecap:butt;stroke-linejoin:miter;stroke-miterlimit:10;stroke-opacity:1;stroke-dasharray:none"
   inkscape:connector-curvature="0" /><g
   transform="matrix(0.08835436,0,0,-0.08835436,2.0364187,497.41124)"
   id="g3777"><path
     d="m 1879,1216 179,0 0,1322 -179,0 0,-1322"
     id="path3779"
     style="fill:#666666;fill-opacity:1;fill-rule:nonzero;stroke:none"
     inkscape:connector-curvature="0" /></g><path
   d="m 168.05428,389.97232 0,-116.71613 15.72708,0 0,116.71613 -15.72708,0"
   id="path3781"
   style="fill:none;stroke:#000000;stroke-width:1.32531559;stroke-linecap:butt;stroke-linejoin:miter;stroke-miterlimit:10;stroke-opacity:1;stroke-dasharray:none"
   inkscape:connector-curvature="0" /><g
   transform="matrix(0.08835436,0,0,-0.08835436,2.0364187,497.41124)"
   id="g3783"><path
     d="m 3653,1216 179,0 0,1248 -179,0 0,-1248"
     id="path3785"
     style="fill:#666666;fill-opacity:1;fill-rule:nonzero;stroke:none"
     inkscape:connector-curvature="0" /></g><path
   d="m 324.79494,389.97232 0,-110.17789 15.72707,0 0,110.17789 -15.72707,0"
   id="path3787"
   style="fill:none;stroke:#000000;stroke-width:1.32531559;stroke-linecap:butt;stroke-linejoin:miter;stroke-miterlimit:10;stroke-opacity:1;stroke-dasharray:none"
   inkscape:connector-curvature="0" /><g
   transform="matrix(0.08835436,0,0,-0.08835436,2.0364187,497.41124)"
   id="g3789"><path
     d="m 5428,1216 178,0 0,1259 -178,0 0,-1259"
     id="path3791"
     style="fill:#666666;fill-opacity:1;fill-rule:nonzero;stroke:none"
     inkscape:connector-curvature="0" /></g><path
   d="m 481.62395,389.97232 0,-111.14979 15.63872,0 0,111.14979 -15.63872,0 m -305.70613,-111.06144 0,-11.30936 m -2.65063,11.30936 5.30127,0 m -5.30127,-11.30936 5.30127,0 m 154.09002,24.03239 0,-23.76733 m -2.65063,23.76733 5.30126,0 m -5.30126,-23.76733 5.30126,0 m 154.17838,19.43797 0,-16.96404 m -2.65063,16.96404 5.30125,0 m -5.30125,-16.96404 5.30125,0"
   id="path3793"
   style="fill:none;stroke:#000000;stroke-width:1.32531559;stroke-linecap:butt;stroke-linejoin:miter;stroke-miterlimit:10;stroke-opacity:1;stroke-dasharray:none"
   inkscape:connector-curvature="0" /><text
   x="676.26862"
   y="311.77872"
   id="text3795"
   style="font-size:1.06025243px"><tspan
     x="676.26862 695.40442 700.50421 708.15399 720.92645 733.69897 746.4715 752.85773 760.50739 773.27991 786.05237 792.43866 811.57452 824.34692 843.48273 856.25525"
     y="311.77872"
     id="tspan3797"
     style="font-size:22.97213745px;font-variant:normal;font-weight:normal;writing-mode:lr-tb;fill:#000000;fill-opacity:1;fill-rule:nonzero;stroke:none;font-family:Helvetica;-inkscape-font-specification:Helvetica">Mirage (no memo)</tspan></text>


<g
   transform="matrix(0.08835436,0,0,-0.08835436,2.0364187,497.41124)"
   id="g3799"><path
     d="m 6851,2091 636,0 0,152 -636,0 0,-152"
     id="path3801"
     style="fill:#c2c285;fill-opacity:1;fill-rule:nonzero;stroke:none"
     inkscape:connector-curvature="0" /></g><path
   d="m 607.35222,312.66225 56.19338,0 0,-13.42986 -56.19338,0 0,13.42986"
   id="path3803"
   style="fill:none;stroke:#999933;stroke-width:1.32531559;stroke-linecap:butt;stroke-linejoin:miter;stroke-miterlimit:10;stroke-opacity:1;stroke-dasharray:none"
   inkscape:connector-curvature="0" /><g
   transform="matrix(0.08835436,0,0,-0.08835436,2.0364187,497.41124)"
   id="g3805"><path
     d="m 2068,1216 178,0 0,1418 -178,0 0,-1418"
     id="path3807"
     style="fill:#c2c285;fill-opacity:1;fill-rule:nonzero;stroke:none"
     inkscape:connector-curvature="0" /></g><path
   d="m 184.75326,389.97232 0,-125.19814 15.63872,0 0,125.19814 -15.63872,0"
   id="path3809"
   style="fill:none;stroke:#999933;stroke-width:1.32531559;stroke-linecap:butt;stroke-linejoin:miter;stroke-miterlimit:10;stroke-opacity:1;stroke-dasharray:none"
   inkscape:connector-curvature="0" /><g
   transform="matrix(0.08835436,0,0,-0.08835436,2.0364187,497.41124)"
   id="g3811"><path
     d="m 3842,1216 179,0 0,1415 -179,0 0,-1415"
     id="path3813"
     style="fill:#c2c285;fill-opacity:1;fill-rule:nonzero;stroke:none"
     inkscape:connector-curvature="0" /></g><path
   d="m 341.49392,389.97232 0,-124.93308 15.72707,0 0,124.93308 -15.72707,0"
   id="path3815"
   style="fill:none;stroke:#999933;stroke-width:1.32531559;stroke-linecap:butt;stroke-linejoin:miter;stroke-miterlimit:10;stroke-opacity:1;stroke-dasharray:none"
   inkscape:connector-curvature="0" /><g
   transform="matrix(0.08835436,0,0,-0.08835436,2.0364187,497.41124)"
   id="g3817"><path
     d="m 5616,1216 179,0 0,1325 -179,0 0,-1325"
     id="path3819"
     style="fill:#c2c285;fill-opacity:1;fill-rule:nonzero;stroke:none"
     inkscape:connector-curvature="0" /></g><path
   d="m 498.23457,389.97232 0,-116.98118 15.72708,0 0,116.98118 -15.72708,0 M 192.6168,265.03924 l 0,-0.61848 m -2.65064,0.61848 5.30126,0 m -5.30126,-0.61848 5.30126,0 m 154.09003,1.23697 0,-1.23697 m -2.65063,1.23697 5.30126,0 m -5.30126,-1.23697 5.30126,0 m 154.09003,9.45391 0,-1.76708 m -2.65064,1.76708 5.30127,0 m -5.30127,-1.76708 5.30127,0"
   id="path3821"
   style="fill:none;stroke:#999933;stroke-width:1.32531559;stroke-linecap:butt;stroke-linejoin:miter;stroke-miterlimit:10;stroke-opacity:1;stroke-dasharray:none"
   inkscape:connector-curvature="0" /><text
   x="676.26862"
   y="338.63846"
   id="text3823"
   style="font-size:1.06025243px"><tspan
     x="676.26862 695.40442 700.50421 708.15399 720.92645 733.69897 746.4715 752.85773 760.50739 779.64319 792.41571 811.55151 824.32397"
     y="338.63846"
     id="tspan3825"
     style="font-size:22.97213745px;font-variant:normal;font-weight:normal;writing-mode:lr-tb;fill:#000000;fill-opacity:1;fill-rule:nonzero;stroke:none;font-family:Helvetica;-inkscape-font-specification:Helvetica">Mirage (memo)</tspan></text>


<g
   transform="matrix(0.08835436,0,0,-0.08835436,2.0364187,497.41124)"
   id="g3827"><path
     d="m 6851,1787 636,0 0,152 -636,0 0,-152"
     id="path3829"
     style="fill:#707ad6;fill-opacity:1;fill-rule:nonzero;stroke:none"
     inkscape:connector-curvature="0" /></g><path
   d="m 607.35222,339.52198 56.19338,0 0,-13.42986 -56.19338,0 0,13.42986"
   id="path3831"
   style="fill:none;stroke:#1122bb;stroke-width:1.32531559;stroke-linecap:butt;stroke-linejoin:miter;stroke-miterlimit:10;stroke-opacity:1;stroke-dasharray:none"
   inkscape:connector-curvature="0" /><g
   transform="matrix(0.08835436,0,0,-0.08835436,2.0364187,497.41124)"
   id="g3833"><path
     d="m 2247,1216 179,0 0,2661 -179,0 0,-2661"
     id="path3835"
     style="fill:#707ad6;fill-opacity:1;fill-rule:nonzero;stroke:none"
     inkscape:connector-curvature="0" /></g><path
   d="m 200.5687,389.97232 0,-235.02263 15.72707,0 0,235.02263 -15.72707,0"
   id="path3837"
   style="fill:none;stroke:#1122bb;stroke-width:1.32531559;stroke-linecap:butt;stroke-linejoin:miter;stroke-miterlimit:10;stroke-opacity:1;stroke-dasharray:none"
   inkscape:connector-curvature="0" /><g
   transform="matrix(0.08835436,0,0,-0.08835436,2.0364187,497.41124)"
   id="g3839"><path
     d="m 4022,1216 178,0 0,2747 -178,0 0,-2747"
     id="path3841"
     style="fill:#707ad6;fill-opacity:1;fill-rule:nonzero;stroke:none"
     inkscape:connector-curvature="0" /></g><path
   d="m 357.39771,389.97232 0,-242.6211 15.63872,0 0,242.6211 -15.63872,0"
   id="path3843"
   style="fill:none;stroke:#1122bb;stroke-width:1.32531559;stroke-linecap:butt;stroke-linejoin:miter;stroke-miterlimit:10;stroke-opacity:1;stroke-dasharray:none"
   inkscape:connector-curvature="0" /><g
   transform="matrix(0.08835436,0,0,-0.08835436,2.0364187,497.41124)"
   id="g3845"><path
     d="m 5796,1216 179,0 0,2711 -179,0 0,-2711"
     id="path3847"
     style="fill:#707ad6;fill-opacity:1;fill-rule:nonzero;stroke:none"
     inkscape:connector-curvature="0" /></g><path
   d="m 514.13836,389.97232 0,-239.44035 15.72707,0 0,239.44035 -15.72707,0 m -305.70613,-231.57681 0,-6.80328 m -2.65063,6.80328 5.30126,0 m -5.30126,-6.80328 5.30126,0 m 154.17837,-2.47392 0,-3.44583 m -2.65062,3.44583 5.30126,0 m -5.30126,-3.44583 5.30126,0 m 154.09002,7.06836 0,-4.32938 m -2.65063,4.32938 5.30127,0 m -5.30127,-4.32938 5.30127,0"
   id="path3849"
   style="fill:none;stroke:#1122bb;stroke-width:1.32531559;stroke-linecap:butt;stroke-linejoin:miter;stroke-miterlimit:10;stroke-opacity:1;stroke-dasharray:none"
   inkscape:connector-curvature="0" /><path
   d="m 98.87281,141.25476 0,248.71756 470.31032,0"
   id="path3851"
   style="fill:none;stroke:#000000;stroke-width:0.88354367;stroke-linecap:butt;stroke-linejoin:miter;stroke-miterlimit:10;stroke-opacity:1;stroke-dasharray:none"
   inkscape:connector-curvature="0" /><text
   xml:space="preserve"
   style="font-size:40px;font-style:normal;font-weight:normal;line-height:125%;letter-spacing:0px;word-spacing:0px;fill:#000000;fill-opacity:1;stroke:none;font-family:Sans"
   x="18.119873"
   y="538.72571"
   id="text7418"
   sodipodi:linespacing="125%"><tspan
     sodipodi:role="line"
     id="tspan7420"
     x="18.119873"
     y="538.72571">DNS queries per second</tspan><tspan
     sodipodi:role="line"
     x="18.119873"
     y="588.72571"
     id="tspan7424" /><tspan
     sodipodi:role="line"
     x="18.119873"
     y="638.72571"
     id="tspan7422" /></text>
</svg>