<?xml version="1.0" encoding="UTF-8" standalone="no"?>
<!-- Created with Inkscape (http://www.inkscape.org/) -->

<svg
   xmlns:dc="http://purl.org/dc/elements/1.1/"
   xmlns:cc="http://creativecommons.org/ns#"
   xmlns:rdf="http://www.w3.org/1999/02/22-rdf-syntax-ns#"
   xmlns:svg="http://www.w3.org/2000/svg"
   xmlns="http://www.w3.org/2000/svg"
   xmlns:sodipodi="http://sodipodi.sourceforge.net/DTD/sodipodi-0.dtd"
   xmlns:inkscape="http://www.inkscape.org/namespaces/inkscape"
   version="1.1"
   width="800"
   height="800"
   id="svg2"
   xml:space="preserve"
   inkscape:version="0.48.3.1 r9886"
   sodipodi:docname="storage-colour.svg"><sodipodi:namedview
     pagecolor="#ffffff"
     bordercolor="#666666"
     borderopacity="1"
     objecttolerance="10"
     gridtolerance="10"
     guidetolerance="10"
     inkscape:pageopacity="0"
     inkscape:pageshadow="2"
     inkscape:window-width="1124"
     inkscape:window-height="724"
     id="namedview7416"
     showgrid="false"
     inkscape:zoom="0.834386"
     inkscape:cx="400"
     inkscape:cy="455.52611"
     inkscape:window-x="0"
     inkscape:window-y="26"
     inkscape:window-maximized="0"
     inkscape:current-layer="svg2" /><metadata
     id="metadata8"><rdf:RDF><cc:Work
         rdf:about=""><dc:format>image/svg+xml</dc:format><dc:type
           rdf:resource="http://purl.org/dc/dcmitype/StillImage" /><dc:title /></cc:Work></rdf:RDF></metadata><defs
     id="defs6" /><g
     transform="matrix(0.09546666,0,0,-0.09546666,0.78943514,519.01904)"
     id="g10"><path
   d="m 1384,1216 60,0"
   id="path12"
   style="fill:none;stroke:#000000;stroke-width:20;stroke-linecap:butt;stroke-linejoin:miter;stroke-miterlimit:10;stroke-opacity:1;stroke-dasharray:none" /><text
   transform="matrix(1,0,0,-1,1095.44,1150)"
   id="text14"><tspan
     x="0"
     y="0"
     id="tspan16"
     style="font-size:260px;font-variant:normal;font-weight:normal;writing-mode:lr-tb;fill:#000000;fill-opacity:1;fill-rule:nonzero;stroke:none;font-family:Helvetica;-inkscape-font-specification:Helvetica">0</tspan></text>


<path
   d="m 1384,1531 60,0"
   id="path18"
   style="fill:none;stroke:#000000;stroke-width:20;stroke-linecap:butt;stroke-linejoin:miter;stroke-miterlimit:10;stroke-opacity:1;stroke-dasharray:none" /><text
   transform="matrix(1,0,0,-1,806.32,1465)"
   id="text20"><tspan
     x="0 144.56 289.12"
     y="0"
     id="tspan22"
     style="font-size:260px;font-variant:normal;font-weight:normal;writing-mode:lr-tb;fill:#000000;fill-opacity:1;fill-rule:nonzero;stroke:none;font-family:Helvetica;-inkscape-font-specification:Helvetica">200</tspan></text>


<path
   d="m 1384,1845 60,0"
   id="path24"
   style="fill:none;stroke:#000000;stroke-width:20;stroke-linecap:butt;stroke-linejoin:miter;stroke-miterlimit:10;stroke-opacity:1;stroke-dasharray:none" /><text
   transform="matrix(1,0,0,-1,806.32,1779)"
   id="text26"><tspan
     x="0 144.56 289.12"
     y="0"
     id="tspan28"
     style="font-size:260px;font-variant:normal;font-weight:normal;writing-mode:lr-tb;fill:#000000;fill-opacity:1;fill-rule:nonzero;stroke:none;font-family:Helvetica;-inkscape-font-specification:Helvetica">400</tspan></text>


<path
   d="m 1384,2160 60,0"
   id="path30"
   style="fill:none;stroke:#000000;stroke-width:20;stroke-linecap:butt;stroke-linejoin:miter;stroke-miterlimit:10;stroke-opacity:1;stroke-dasharray:none" /><text
   transform="matrix(1,0,0,-1,806.32,2094)"
   id="text32"><tspan
     x="0 144.56 289.12"
     y="0"
     id="tspan34"
     style="font-size:260px;font-variant:normal;font-weight:normal;writing-mode:lr-tb;fill:#000000;fill-opacity:1;fill-rule:nonzero;stroke:none;font-family:Helvetica;-inkscape-font-specification:Helvetica">600</tspan></text>


<path
   d="m 1384,2474 60,0"
   id="path36"
   style="fill:none;stroke:#000000;stroke-width:20;stroke-linecap:butt;stroke-linejoin:miter;stroke-miterlimit:10;stroke-opacity:1;stroke-dasharray:none" /><text
   transform="matrix(1,0,0,-1,806.32,2408)"
   id="text38"><tspan
     x="0 144.56 289.12"
     y="0"
     id="tspan40"
     style="font-size:260px;font-variant:normal;font-weight:normal;writing-mode:lr-tb;fill:#000000;fill-opacity:1;fill-rule:nonzero;stroke:none;font-family:Helvetica;-inkscape-font-specification:Helvetica">800</tspan></text>


<path
   d="m 1384,2789 60,0"
   id="path42"
   style="fill:none;stroke:#000000;stroke-width:20;stroke-linecap:butt;stroke-linejoin:miter;stroke-miterlimit:10;stroke-opacity:1;stroke-dasharray:none" /><text
   transform="matrix(1,0,0,-1,661.76,2723)"
   id="text44"><tspan
     x="0 144.56 289.12 433.67999"
     y="0"
     id="tspan46"
     style="font-size:260px;font-variant:normal;font-weight:normal;writing-mode:lr-tb;fill:#000000;fill-opacity:1;fill-rule:nonzero;stroke:none;font-family:Helvetica;-inkscape-font-specification:Helvetica">1000</tspan></text>


<path
   d="m 1384,3103 60,0"
   id="path48"
   style="fill:none;stroke:#000000;stroke-width:20;stroke-linecap:butt;stroke-linejoin:miter;stroke-miterlimit:10;stroke-opacity:1;stroke-dasharray:none" /><text
   transform="matrix(1,0,0,-1,661.76,3037)"
   id="text50"><tspan
     x="0 144.56 289.12 433.67999"
     y="0"
     id="tspan52"
     style="font-size:260px;font-variant:normal;font-weight:normal;writing-mode:lr-tb;fill:#000000;fill-opacity:1;fill-rule:nonzero;stroke:none;font-family:Helvetica;-inkscape-font-specification:Helvetica">1200</tspan></text>


<path
   d="m 1384,3418 60,0"
   id="path54"
   style="fill:none;stroke:#000000;stroke-width:20;stroke-linecap:butt;stroke-linejoin:miter;stroke-miterlimit:10;stroke-opacity:1;stroke-dasharray:none" /><text
   transform="matrix(1,0,0,-1,661.76,3352)"
   id="text56"><tspan
     x="0 144.56 289.12 433.67999"
     y="0"
     id="tspan58"
     style="font-size:260px;font-variant:normal;font-weight:normal;writing-mode:lr-tb;fill:#000000;fill-opacity:1;fill-rule:nonzero;stroke:none;font-family:Helvetica;-inkscape-font-specification:Helvetica">1400</tspan></text>


<path
   d="m 1384,3732 60,0"
   id="path60"
   style="fill:none;stroke:#000000;stroke-width:20;stroke-linecap:butt;stroke-linejoin:miter;stroke-miterlimit:10;stroke-opacity:1;stroke-dasharray:none" /><text
   transform="matrix(1,0,0,-1,661.76,3666)"
   id="text62"><tspan
     x="0 144.56 289.12 433.67999"
     y="0"
     id="tspan64"
     style="font-size:260px;font-variant:normal;font-weight:normal;writing-mode:lr-tb;fill:#000000;fill-opacity:1;fill-rule:nonzero;stroke:none;font-family:Helvetica;-inkscape-font-specification:Helvetica">1600</tspan></text>


<g
   transform="matrix(0.7071,-0.7071,0.7071,0.7071,1709.3314,1025.3314)"
   id="g66"><text
   transform="matrix(1,0,0,-1,72.28,0)"
   id="text68"><tspan
     x="0"
     y="0"
     id="tspan70"
     style="font-size:260px;font-variant:normal;font-weight:normal;writing-mode:lr-tb;fill:#000000;fill-opacity:1;fill-rule:nonzero;stroke:none;font-family:Helvetica;-inkscape-font-specification:Helvetica">1</tspan></text>


</g><g
   transform="matrix(0.7071,-0.7071,0.7071,0.7071,2214.3314,1025.3314)"
   id="g72"><text
   transform="matrix(1,0,0,-1,72.28,0)"
   id="text74"><tspan
     x="0"
     y="0"
     id="tspan76"
     style="font-size:260px;font-variant:normal;font-weight:normal;writing-mode:lr-tb;fill:#000000;fill-opacity:1;fill-rule:nonzero;stroke:none;font-family:Helvetica;-inkscape-font-specification:Helvetica">2</tspan></text>


</g><g
   transform="matrix(0.7071,-0.7071,0.7071,0.7071,2719.3314,1025.3314)"
   id="g78"><text
   transform="matrix(1,0,0,-1,72.28,0)"
   id="text80"><tspan
     x="0"
     y="0"
     id="tspan82"
     style="font-size:260px;font-variant:normal;font-weight:normal;writing-mode:lr-tb;fill:#000000;fill-opacity:1;fill-rule:nonzero;stroke:none;font-family:Helvetica;-inkscape-font-specification:Helvetica">4</tspan></text>


</g><g
   transform="matrix(0.7071,-0.7071,0.7071,0.7071,3224.3314,1025.3314)"
   id="g84"><text
   transform="matrix(1,0,0,-1,72.28,0)"
   id="text86"><tspan
     x="0"
     y="0"
     id="tspan88"
     style="font-size:260px;font-variant:normal;font-weight:normal;writing-mode:lr-tb;fill:#000000;fill-opacity:1;fill-rule:nonzero;stroke:none;font-family:Helvetica;-inkscape-font-specification:Helvetica">8</tspan></text>


</g><g
   transform="matrix(0.7071,-0.7071,0.7071,0.7071,3729.3314,1025.3314)"
   id="g90"><text
   transform="matrix(1,0,0,-1,72.28,0)"
   id="text92"><tspan
     x="0 144.56"
     y="0"
     id="tspan94"
     style="font-size:260px;font-variant:normal;font-weight:normal;writing-mode:lr-tb;fill:#000000;fill-opacity:1;fill-rule:nonzero;stroke:none;font-family:Helvetica;-inkscape-font-specification:Helvetica">16</tspan></text>


</g><g
   transform="matrix(0.7071,-0.7071,0.7071,0.7071,4234.3314,1025.3314)"
   id="g96"><text
   transform="matrix(1,0,0,-1,72.28,0)"
   id="text98"><tspan
     x="0 144.56"
     y="0"
     id="tspan100"
     style="font-size:260px;font-variant:normal;font-weight:normal;writing-mode:lr-tb;fill:#000000;fill-opacity:1;fill-rule:nonzero;stroke:none;font-family:Helvetica;-inkscape-font-specification:Helvetica">32</tspan></text>


</g><g
   transform="matrix(0.7071,-0.7071,0.7071,0.7071,4739.3314,1025.3314)"
   id="g102"><text
   transform="matrix(1,0,0,-1,72.28,0)"
   id="text104"><tspan
     x="0 144.56"
     y="0"
     id="tspan106"
     style="font-size:260px;font-variant:normal;font-weight:normal;writing-mode:lr-tb;fill:#000000;fill-opacity:1;fill-rule:nonzero;stroke:none;font-family:Helvetica;-inkscape-font-specification:Helvetica">64</tspan></text>


</g><g
   transform="matrix(0.7071,-0.7071,0.7071,0.7071,5244.3314,1025.3314)"
   id="g108"><text
   transform="matrix(1,0,0,-1,72.28,0)"
   id="text110"><tspan
     x="0 144.56 289.12"
     y="0"
     id="tspan112"
     style="font-size:260px;font-variant:normal;font-weight:normal;writing-mode:lr-tb;fill:#000000;fill-opacity:1;fill-rule:nonzero;stroke:none;font-family:Helvetica;-inkscape-font-specification:Helvetica">128</tspan></text>


</g><g
   transform="matrix(0.7071,-0.7071,0.7071,0.7071,5749.3314,1025.3314)"
   id="g114"><text
   transform="matrix(1,0,0,-1,72.28,0)"
   id="text116"><tspan
     x="0 144.56 289.12"
     y="0"
     id="tspan118"
     style="font-size:260px;font-variant:normal;font-weight:normal;writing-mode:lr-tb;fill:#000000;fill-opacity:1;fill-rule:nonzero;stroke:none;font-family:Helvetica;-inkscape-font-specification:Helvetica">256</tspan></text>


</g><g
   transform="matrix(0.7071,-0.7071,0.7071,0.7071,6254.3314,1025.3314)"
   id="g120"><text
   transform="matrix(1,0,0,-1,72.28,0)"
   id="text122"><tspan
     x="0 144.56 289.12"
     y="0"
     id="tspan124"
     style="font-size:260px;font-variant:normal;font-weight:normal;writing-mode:lr-tb;fill:#000000;fill-opacity:1;fill-rule:nonzero;stroke:none;font-family:Helvetica;-inkscape-font-specification:Helvetica">512</tspan></text>


</g><g
   transform="matrix(0.7071,-0.7071,0.7071,0.7071,6759.3314,1025.3314)"
   id="g126"><text
   transform="matrix(1,0,0,-1,72.28,0)"
   id="text128"><tspan
     x="0 144.56 289.12 433.67999"
     y="0"
     id="tspan130"
     style="font-size:260px;font-variant:normal;font-weight:normal;writing-mode:lr-tb;fill:#000000;fill-opacity:1;fill-rule:nonzero;stroke:none;font-family:Helvetica;-inkscape-font-specification:Helvetica">1024</tspan></text>


</g><g
   transform="matrix(0.7071,-0.7071,0.7071,0.7071,7265.3314,1025.3314)"
   id="g132"><text
   transform="matrix(1,0,0,-1,72.28,0)"
   id="text134"><tspan
     x="0 144.56 289.12 433.67999"
     y="0"
     id="tspan136"
     style="font-size:260px;font-variant:normal;font-weight:normal;writing-mode:lr-tb;fill:#000000;fill-opacity:1;fill-rule:nonzero;stroke:none;font-family:Helvetica;-inkscape-font-specification:Helvetica">2048</tspan></text>


</g><g
   transform="matrix(0.7071,-0.7071,0.7071,0.7071,7770.3314,1025.3314)"
   id="g138"><text
   transform="matrix(1,0,0,-1,72.28,0)"
   id="text140"><tspan
     x="0 144.56 289.12 433.67999"
     y="0"
     id="tspan142"
     style="font-size:260px;font-variant:normal;font-weight:normal;writing-mode:lr-tb;fill:#000000;fill-opacity:1;fill-rule:nonzero;stroke:none;font-family:Helvetica;-inkscape-font-specification:Helvetica">4096</tspan></text>


</g><path
   d="m 1384,4031 0,-2815 6823,0"
   id="path144"
   style="fill:none;stroke:#000000;stroke-width:20;stroke-linecap:butt;stroke-linejoin:miter;stroke-miterlimit:10;stroke-opacity:1;stroke-dasharray:none" /><g
   transform="matrix(0,1,-1,0,290,2623)"
   id="g146"><text
   transform="matrix(1,0,0,-1,-1112.54,0)"
   id="text148"><tspan
     x="0 158.86 303.42001 390 534.56 679.12 823.67999 968.23999 1112.8 1257.36 1329.64 1401.92 1488.5 1705.08 1762.8 1936.22 2008.5 2138.5"
     y="0"
     id="tspan150"
     style="font-size:260px;font-variant:normal;font-weight:normal;writing-mode:lr-tb;fill:#000000;fill-opacity:1;fill-rule:nonzero;stroke:none;font-family:Helvetica;-inkscape-font-specification:Helvetica">Throughput (MiB/s)</tspan></text>


</g><text
   transform="matrix(1,0,0,-1,3884.87,288)"
   id="text152"><tspan
     x="0 173.42 231.14 375.70001 505.70001 635.70001 707.97998 837.97998 895.70001 1025.7 1170.26 1242.54 1329.12 1502.54 1560.26 1733.6801"
     y="0"
     id="tspan154"
     style="font-size:260px;font-variant:normal;font-weight:normal;writing-mode:lr-tb;fill:#000000;fill-opacity:1;fill-rule:nonzero;stroke:none;font-family:Helvetica;-inkscape-font-specification:Helvetica">Block size (KiB)</tspan><tspan
     x="1825.13 1955.13 2099.6899 2244.25 2330.8301 2475.3899 2533.1101 2619.6899 2764.25 2894.25"
     y="-2581"
     id="tspan156"
     style="font-size:260px;font-variant:normal;font-weight:normal;writing-mode:lr-tb;fill:#000000;fill-opacity:1;fill-rule:nonzero;stroke:none;font-family:Helvetica;-inkscape-font-specification:Helvetica">xen-direct</tspan></text>


<path
   d="m 4930,2935 636,0 m -4182,-1644 372,44 505,117 505,236 505,372 505,515 505,681 505,-10 505,252 505,-20 505,-11 505,5 506,14 505,-19"
   id="path158"
   style="fill:none;stroke:#1122bb;stroke-width:50;stroke-linecap:butt;stroke-linejoin:miter;stroke-miterlimit:10;stroke-opacity:1;stroke-dasharray:none" /><g
   transform="matrix(60,0,0,60,1756,1335)"
   id="g160"><path
     d="M -1,-1 1,1 M 1,-1 -1,1"
     id="path162"
     style="fill:none;stroke:#1122bb;stroke-width:0.83329999;stroke-linecap:butt;stroke-linejoin:miter;stroke-miterlimit:10;stroke-opacity:1;stroke-dasharray:none" /></g><g
   transform="matrix(60,0,0,60,2261,1452)"
   id="g164"><path
     d="M -1,-1 1,1 M 1,-1 -1,1"
     id="path166"
     style="fill:none;stroke:#1122bb;stroke-width:0.83329999;stroke-linecap:butt;stroke-linejoin:miter;stroke-miterlimit:10;stroke-opacity:1;stroke-dasharray:none" /></g><g
   transform="matrix(60,0,0,60,2766,1688)"
   id="g168"><path
     d="M -1,-1 1,1 M 1,-1 -1,1"
     id="path170"
     style="fill:none;stroke:#1122bb;stroke-width:0.83329999;stroke-linecap:butt;stroke-linejoin:miter;stroke-miterlimit:10;stroke-opacity:1;stroke-dasharray:none" /></g><g
   transform="matrix(60,0,0,60,3271,2060)"
   id="g172"><path
     d="M -1,-1 1,1 M 1,-1 -1,1"
     id="path174"
     style="fill:none;stroke:#1122bb;stroke-width:0.83329999;stroke-linecap:butt;stroke-linejoin:miter;stroke-miterlimit:10;stroke-opacity:1;stroke-dasharray:none" /></g><g
   transform="matrix(60,0,0,60,3776,2575)"
   id="g176"><path
     d="M -1,-1 1,1 M 1,-1 -1,1"
     id="path178"
     style="fill:none;stroke:#1122bb;stroke-width:0.83329999;stroke-linecap:butt;stroke-linejoin:miter;stroke-miterlimit:10;stroke-opacity:1;stroke-dasharray:none" /></g><g
   transform="matrix(60,0,0,60,4281,3256)"
   id="g180"><path
     d="M -1,-1 1,1 M 1,-1 -1,1"
     id="path182"
     style="fill:none;stroke:#1122bb;stroke-width:0.83329999;stroke-linecap:butt;stroke-linejoin:miter;stroke-miterlimit:10;stroke-opacity:1;stroke-dasharray:none" /></g><g
   transform="matrix(60,0,0,60,4786,3246)"
   id="g184"><path
     d="M -1,-1 1,1 M 1,-1 -1,1"
     id="path186"
     style="fill:none;stroke:#1122bb;stroke-width:0.83329999;stroke-linecap:butt;stroke-linejoin:miter;stroke-miterlimit:10;stroke-opacity:1;stroke-dasharray:none" /></g><g
   transform="matrix(60,0,0,60,5291,3498)"
   id="g188"><path
     d="M -1,-1 1,1 M 1,-1 -1,1"
     id="path190"
     style="fill:none;stroke:#1122bb;stroke-width:0.83329999;stroke-linecap:butt;stroke-linejoin:miter;stroke-miterlimit:10;stroke-opacity:1;stroke-dasharray:none" /></g><g
   transform="matrix(60,0,0,60,5796,3478)"
   id="g192"><path
     d="M -1,-1 1,1 M 1,-1 -1,1"
     id="path194"
     style="fill:none;stroke:#1122bb;stroke-width:0.83329999;stroke-linecap:butt;stroke-linejoin:miter;stroke-miterlimit:10;stroke-opacity:1;stroke-dasharray:none" /></g><g
   transform="matrix(60,0,0,60,6301,3467)"
   id="g196"><path
     d="M -1,-1 1,1 M 1,-1 -1,1"
     id="path198"
     style="fill:none;stroke:#1122bb;stroke-width:0.83329999;stroke-linecap:butt;stroke-linejoin:miter;stroke-miterlimit:10;stroke-opacity:1;stroke-dasharray:none" /></g><g
   transform="matrix(60,0,0,60,6806,3472)"
   id="g200"><path
     d="M -1,-1 1,1 M 1,-1 -1,1"
     id="path202"
     style="fill:none;stroke:#1122bb;stroke-width:0.83329999;stroke-linecap:butt;stroke-linejoin:miter;stroke-miterlimit:10;stroke-opacity:1;stroke-dasharray:none" /></g><g
   transform="matrix(60,0,0,60,7312,3486)"
   id="g204"><path
     d="M -1,-1 1,1 M 1,-1 -1,1"
     id="path206"
     style="fill:none;stroke:#1122bb;stroke-width:0.83329999;stroke-linecap:butt;stroke-linejoin:miter;stroke-miterlimit:10;stroke-opacity:1;stroke-dasharray:none" /></g><g
   transform="matrix(60,0,0,60,7817,3467)"
   id="g208"><path
     d="M -1,-1 1,1 M 1,-1 -1,1"
     id="path210"
     style="fill:none;stroke:#1122bb;stroke-width:0.83329999;stroke-linecap:butt;stroke-linejoin:miter;stroke-miterlimit:10;stroke-opacity:1;stroke-dasharray:none" /></g><g
   transform="matrix(60,0,0,60,5248,2935)"
   id="g212"><path
     d="M -1,-1 1,1 M 1,-1 -1,1"
     id="path214"
     style="fill:none;stroke:#1122bb;stroke-width:0.83329999;stroke-linecap:butt;stroke-linejoin:miter;stroke-miterlimit:10;stroke-opacity:1;stroke-dasharray:none" /></g><path
   d="m 1756,1331 0,8 m -30,-8 60,0 m -60,8 60,0 m 475,107 0,12 m -30,-12 60,0 m -60,12 60,0 m 475,216 0,28 m -30,-28 60,0 m -60,28 60,0 m 475,330 0,56 m -30,-56 60,0 m -60,56 60,0 m 475,430 0,113 m -30,-113 60,0 m -60,113 60,0 m 475,530 0,191 m -30,-191 60,0 m -60,191 60,0 m 475,-159 0,106 m -30,-106 60,0 m -60,106 60,0 m 475,137 0,123 m -30,-123 60,0 m -60,123 60,0 m 475,-150 0,138 m -30,-138 60,0 m -60,138 60,0 m 475,-143 0,127 m -30,-127 60,0 m -60,127 60,0 m 475,-125 0,133 m -30,-133 60,0 m -60,133 60,0 m 476,-119 0,131 m -30,-131 60,0 m -60,131 60,0 m 475,-173 0,178 m -30,-178 60,0 m -60,178 60,0"
   id="path216"
   style="fill:none;stroke:#1122bb;stroke-width:20;stroke-linecap:butt;stroke-linejoin:miter;stroke-miterlimit:10;stroke-opacity:1;stroke-dasharray:none" /><g
   transform="matrix(60,0,0,60,1756,1335)"
   id="g218"><path
     d="M -1,-1 1,1 M 1,-1 -1,1"
     id="path220"
     style="fill:none;stroke:#1122bb;stroke-width:0.33329999;stroke-linecap:butt;stroke-linejoin:miter;stroke-miterlimit:10;stroke-opacity:1;stroke-dasharray:none" /></g><g
   transform="matrix(60,0,0,60,2261,1452)"
   id="g222"><path
     d="M -1,-1 1,1 M 1,-1 -1,1"
     id="path224"
     style="fill:none;stroke:#1122bb;stroke-width:0.33329999;stroke-linecap:butt;stroke-linejoin:miter;stroke-miterlimit:10;stroke-opacity:1;stroke-dasharray:none" /></g><g
   transform="matrix(60,0,0,60,2766,1688)"
   id="g226"><path
     d="M -1,-1 1,1 M 1,-1 -1,1"
     id="path228"
     style="fill:none;stroke:#1122bb;stroke-width:0.33329999;stroke-linecap:butt;stroke-linejoin:miter;stroke-miterlimit:10;stroke-opacity:1;stroke-dasharray:none" /></g><g
   transform="matrix(60,0,0,60,3271,2060)"
   id="g230"><path
     d="M -1,-1 1,1 M 1,-1 -1,1"
     id="path232"
     style="fill:none;stroke:#1122bb;stroke-width:0.33329999;stroke-linecap:butt;stroke-linejoin:miter;stroke-miterlimit:10;stroke-opacity:1;stroke-dasharray:none" /></g><g
   transform="matrix(60,0,0,60,3776,2575)"
   id="g234"><path
     d="M -1,-1 1,1 M 1,-1 -1,1"
     id="path236"
     style="fill:none;stroke:#1122bb;stroke-width:0.33329999;stroke-linecap:butt;stroke-linejoin:miter;stroke-miterlimit:10;stroke-opacity:1;stroke-dasharray:none" /></g><g
   transform="matrix(60,0,0,60,4281,3256)"
   id="g238"><path
     d="M -1,-1 1,1 M 1,-1 -1,1"
     id="path240"
     style="fill:none;stroke:#1122bb;stroke-width:0.33329999;stroke-linecap:butt;stroke-linejoin:miter;stroke-miterlimit:10;stroke-opacity:1;stroke-dasharray:none" /></g><g
   transform="matrix(60,0,0,60,4786,3246)"
   id="g242"><path
     d="M -1,-1 1,1 M 1,-1 -1,1"
     id="path244"
     style="fill:none;stroke:#1122bb;stroke-width:0.33329999;stroke-linecap:butt;stroke-linejoin:miter;stroke-miterlimit:10;stroke-opacity:1;stroke-dasharray:none" /></g><g
   transform="matrix(60,0,0,60,5291,3498)"
   id="g246"><path
     d="M -1,-1 1,1 M 1,-1 -1,1"
     id="path248"
     style="fill:none;stroke:#1122bb;stroke-width:0.33329999;stroke-linecap:butt;stroke-linejoin:miter;stroke-miterlimit:10;stroke-opacity:1;stroke-dasharray:none" /></g><g
   transform="matrix(60,0,0,60,5796,3478)"
   id="g250"><path
     d="M -1,-1 1,1 M 1,-1 -1,1"
     id="path252"
     style="fill:none;stroke:#1122bb;stroke-width:0.33329999;stroke-linecap:butt;stroke-linejoin:miter;stroke-miterlimit:10;stroke-opacity:1;stroke-dasharray:none" /></g><g
   transform="matrix(60,0,0,60,6301,3467)"
   id="g254"><path
     d="M -1,-1 1,1 M 1,-1 -1,1"
     id="path256"
     style="fill:none;stroke:#1122bb;stroke-width:0.33329999;stroke-linecap:butt;stroke-linejoin:miter;stroke-miterlimit:10;stroke-opacity:1;stroke-dasharray:none" /></g><g
   transform="matrix(60,0,0,60,6806,3472)"
   id="g258"><path
     d="M -1,-1 1,1 M 1,-1 -1,1"
     id="path260"
     style="fill:none;stroke:#1122bb;stroke-width:0.33329999;stroke-linecap:butt;stroke-linejoin:miter;stroke-miterlimit:10;stroke-opacity:1;stroke-dasharray:none" /></g><g
   transform="matrix(60,0,0,60,7312,3486)"
   id="g262"><path
     d="M -1,-1 1,1 M 1,-1 -1,1"
     id="path264"
     style="fill:none;stroke:#1122bb;stroke-width:0.33329999;stroke-linecap:butt;stroke-linejoin:miter;stroke-miterlimit:10;stroke-opacity:1;stroke-dasharray:none" /></g><g
   transform="matrix(60,0,0,60,7817,3467)"
   id="g266"><path
     d="M -1,-1 1,1 M 1,-1 -1,1"
     id="path268"
     style="fill:none;stroke:#1122bb;stroke-width:0.33329999;stroke-linecap:butt;stroke-linejoin:miter;stroke-miterlimit:10;stroke-opacity:1;stroke-dasharray:none" /></g><text
   transform="matrix(1,0,0,-1,5710,2565)"
   id="text270"><tspan
     x="0 57.720001 115.44 260 404.56 534.56 621.14001 765.70001 895.70001 967.97998 1040.26 1184.8199 1242.54 1329.12 1473.6801 1603.6801 1675.96 1748.24 1820.52 1892.8"
     y="0"
     id="tspan272"
     style="font-size:260px;font-variant:normal;font-weight:normal;writing-mode:lr-tb;fill:#000000;fill-opacity:1;fill-rule:nonzero;stroke:none;font-family:Helvetica;-inkscape-font-specification:Helvetica">linux-pv, direct I/O</tspan></text>


<path
   d="m 4930,2631 636,0 m -4182,-1325 372,23 505,113 505,219 505,401 505,497 505,555 505,244 505,17 505,90 505,31 505,25 506,-11 505,10"
   id="path274"
   style="fill:none;stroke:#999933;stroke-width:50;stroke-linecap:butt;stroke-linejoin:miter;stroke-miterlimit:10;stroke-opacity:1;stroke-dasharray:none" /><g
   transform="matrix(30,0,0,30,1756,1329)"
   id="g276"><path
     d="M 1,0 C 1,0.5523 0.5523,1 0,1 -0.5523,1 -1,0.5523 -1,0 c 0,-0.5523 0.4477,-1 1,-1 0.5523,0 1,0.4477 1,1 z"
     id="path278"
     style="fill:#999933;fill-opacity:1;fill-rule:nonzero;stroke:#999933;stroke-width:1.66670001;stroke-linecap:butt;stroke-linejoin:miter;stroke-miterlimit:10;stroke-opacity:1;stroke-dasharray:none" /></g><g
   transform="matrix(30,0,0,30,2261,1442)"
   id="g280"><path
     d="M 1,0 C 1,0.5523 0.5523,1 0,1 -0.5523,1 -1,0.5523 -1,0 c 0,-0.5523 0.4477,-1 1,-1 0.5523,0 1,0.4477 1,1 z"
     id="path282"
     style="fill:#999933;fill-opacity:1;fill-rule:nonzero;stroke:#999933;stroke-width:1.66670001;stroke-linecap:butt;stroke-linejoin:miter;stroke-miterlimit:10;stroke-opacity:1;stroke-dasharray:none" /></g><g
   transform="matrix(30,0,0,30,2766,1661)"
   id="g284"><path
     d="M 1,0 C 1,0.5523 0.5523,1 0,1 -0.5523,1 -1,0.5523 -1,0 c 0,-0.5523 0.4477,-1 1,-1 0.5523,0 1,0.4477 1,1 z"
     id="path286"
     style="fill:#999933;fill-opacity:1;fill-rule:nonzero;stroke:#999933;stroke-width:1.66670001;stroke-linecap:butt;stroke-linejoin:miter;stroke-miterlimit:10;stroke-opacity:1;stroke-dasharray:none" /></g><g
   transform="matrix(30,0,0,30,3271,2062)"
   id="g288"><path
     d="M 1,0 C 1,0.5523 0.5523,1 0,1 -0.5523,1 -1,0.5523 -1,0 c 0,-0.5523 0.4477,-1 1,-1 0.5523,0 1,0.4477 1,1 z"
     id="path290"
     style="fill:#999933;fill-opacity:1;fill-rule:nonzero;stroke:#999933;stroke-width:1.66670001;stroke-linecap:butt;stroke-linejoin:miter;stroke-miterlimit:10;stroke-opacity:1;stroke-dasharray:none" /></g><g
   transform="matrix(30,0,0,30,3776,2559)"
   id="g292"><path
     d="M 1,0 C 1,0.5523 0.5523,1 0,1 -0.5523,1 -1,0.5523 -1,0 c 0,-0.5523 0.4477,-1 1,-1 0.5523,0 1,0.4477 1,1 z"
     id="path294"
     style="fill:#999933;fill-opacity:1;fill-rule:nonzero;stroke:#999933;stroke-width:1.66670001;stroke-linecap:butt;stroke-linejoin:miter;stroke-miterlimit:10;stroke-opacity:1;stroke-dasharray:none" /></g><g
   transform="matrix(30,0,0,30,4281,3114)"
   id="g296"><path
     d="M 1,0 C 1,0.5523 0.5523,1 0,1 -0.5523,1 -1,0.5523 -1,0 c 0,-0.5523 0.4477,-1 1,-1 0.5523,0 1,0.4477 1,1 z"
     id="path298"
     style="fill:#999933;fill-opacity:1;fill-rule:nonzero;stroke:#999933;stroke-width:1.66670001;stroke-linecap:butt;stroke-linejoin:miter;stroke-miterlimit:10;stroke-opacity:1;stroke-dasharray:none" /></g><g
   transform="matrix(30,0,0,30,4786,3358)"
   id="g300"><path
     d="M 1,0 C 1,0.5523 0.5523,1 0,1 -0.5523,1 -1,0.5523 -1,0 c 0,-0.5523 0.4477,-1 1,-1 0.5523,0 1,0.4477 1,1 z"
     id="path302"
     style="fill:#999933;fill-opacity:1;fill-rule:nonzero;stroke:#999933;stroke-width:1.66670001;stroke-linecap:butt;stroke-linejoin:miter;stroke-miterlimit:10;stroke-opacity:1;stroke-dasharray:none" /></g><g
   transform="matrix(30,0,0,30,5291,3375)"
   id="g304"><path
     d="M 1,0 C 1,0.5523 0.5523,1 0,1 -0.5523,1 -1,0.5523 -1,0 c 0,-0.5523 0.4477,-1 1,-1 0.5523,0 1,0.4477 1,1 z"
     id="path306"
     style="fill:#999933;fill-opacity:1;fill-rule:nonzero;stroke:#999933;stroke-width:1.66670001;stroke-linecap:butt;stroke-linejoin:miter;stroke-miterlimit:10;stroke-opacity:1;stroke-dasharray:none" /></g><g
   transform="matrix(30,0,0,30,5796,3465)"
   id="g308"><path
     d="M 1,0 C 1,0.5523 0.5523,1 0,1 -0.5523,1 -1,0.5523 -1,0 c 0,-0.5523 0.4477,-1 1,-1 0.5523,0 1,0.4477 1,1 z"
     id="path310"
     style="fill:#999933;fill-opacity:1;fill-rule:nonzero;stroke:#999933;stroke-width:1.66670001;stroke-linecap:butt;stroke-linejoin:miter;stroke-miterlimit:10;stroke-opacity:1;stroke-dasharray:none" /></g><g
   transform="matrix(30,0,0,30,6301,3496)"
   id="g312"><path
     d="M 1,0 C 1,0.5523 0.5523,1 0,1 -0.5523,1 -1,0.5523 -1,0 c 0,-0.5523 0.4477,-1 1,-1 0.5523,0 1,0.4477 1,1 z"
     id="path314"
     style="fill:#999933;fill-opacity:1;fill-rule:nonzero;stroke:#999933;stroke-width:1.66670001;stroke-linecap:butt;stroke-linejoin:miter;stroke-miterlimit:10;stroke-opacity:1;stroke-dasharray:none" /></g><g
   transform="matrix(30,0,0,30,6806,3521)"
   id="g316"><path
     d="M 1,0 C 1,0.5523 0.5523,1 0,1 -0.5523,1 -1,0.5523 -1,0 c 0,-0.5523 0.4477,-1 1,-1 0.5523,0 1,0.4477 1,1 z"
     id="path318"
     style="fill:#999933;fill-opacity:1;fill-rule:nonzero;stroke:#999933;stroke-width:1.66670001;stroke-linecap:butt;stroke-linejoin:miter;stroke-miterlimit:10;stroke-opacity:1;stroke-dasharray:none" /></g><g
   transform="matrix(30,0,0,30,7312,3510)"
   id="g320"><path
     d="M 1,0 C 1,0.5523 0.5523,1 0,1 -0.5523,1 -1,0.5523 -1,0 c 0,-0.5523 0.4477,-1 1,-1 0.5523,0 1,0.4477 1,1 z"
     id="path322"
     style="fill:#999933;fill-opacity:1;fill-rule:nonzero;stroke:#999933;stroke-width:1.66670001;stroke-linecap:butt;stroke-linejoin:miter;stroke-miterlimit:10;stroke-opacity:1;stroke-dasharray:none" /></g><g
   transform="matrix(30,0,0,30,7817,3520)"
   id="g324"><path
     d="M 1,0 C 1,0.5523 0.5523,1 0,1 -0.5523,1 -1,0.5523 -1,0 c 0,-0.5523 0.4477,-1 1,-1 0.5523,0 1,0.4477 1,1 z"
     id="path326"
     style="fill:#999933;fill-opacity:1;fill-rule:nonzero;stroke:#999933;stroke-width:1.66670001;stroke-linecap:butt;stroke-linejoin:miter;stroke-miterlimit:10;stroke-opacity:1;stroke-dasharray:none" /></g><g
   transform="matrix(30,0,0,30,5248,2631)"
   id="g328"><path
     d="M 1,0 C 1,0.5523 0.5523,1 0,1 -0.5523,1 -1,0.5523 -1,0 c 0,-0.5523 0.4477,-1 1,-1 0.5523,0 1,0.4477 1,1 z"
     id="path330"
     style="fill:#999933;fill-opacity:1;fill-rule:nonzero;stroke:#999933;stroke-width:1.66670001;stroke-linecap:butt;stroke-linejoin:miter;stroke-miterlimit:10;stroke-opacity:1;stroke-dasharray:none" /></g><path
   d="m 1756,1328 0,3 m -30,-3 60,0 m -60,3 60,0 m 475,108 0,7 m -30,-7 60,0 m -60,7 60,0 m 475,206 0,18 m -30,-18 60,0 m -60,18 60,0 m 475,364 0,56 m -30,-56 60,0 m -60,56 60,0 m 475,388 0,162 m -30,-162 60,0 m -60,162 60,0 m 475,401 0,147 m -30,-147 60,0 m -60,147 60,0 m 475,92 0,156 m -30,-156 60,0 m -60,156 60,0 m 475,-131 0,141 m -30,-141 60,0 m -60,141 60,0 m 475,-49 0,135 m -30,-135 60,0 m -60,135 60,0 m 475,-92 0,113 m -30,-113 60,0 m -60,113 60,0 m 475,-81 0,99 m -30,-99 60,0 m -60,99 60,0 m 476,-144 0,167 m -30,-167 60,0 m -60,167 60,0 m 475,-168 0,187 m -30,-187 60,0 m -60,187 60,0"
   id="path332"
   style="fill:none;stroke:#999933;stroke-width:20;stroke-linecap:butt;stroke-linejoin:miter;stroke-miterlimit:10;stroke-opacity:1;stroke-dasharray:none" /><g
   transform="matrix(30,0,0,30,1756,1329)"
   id="g334"><path
     d="M 1,0 C 1,0.5523 0.5523,1 0,1 -0.5523,1 -1,0.5523 -1,0 c 0,-0.5523 0.4477,-1 1,-1 0.5523,0 1,0.4477 1,1 z"
     id="path336"
     style="fill:#999933;fill-opacity:1;fill-rule:nonzero;stroke:#999933;stroke-width:0.66670001;stroke-linecap:butt;stroke-linejoin:miter;stroke-miterlimit:10;stroke-opacity:1;stroke-dasharray:none" /></g><g
   transform="matrix(30,0,0,30,2261,1442)"
   id="g338"><path
     d="M 1,0 C 1,0.5523 0.5523,1 0,1 -0.5523,1 -1,0.5523 -1,0 c 0,-0.5523 0.4477,-1 1,-1 0.5523,0 1,0.4477 1,1 z"
     id="path340"
     style="fill:#999933;fill-opacity:1;fill-rule:nonzero;stroke:#999933;stroke-width:0.66670001;stroke-linecap:butt;stroke-linejoin:miter;stroke-miterlimit:10;stroke-opacity:1;stroke-dasharray:none" /></g><g
   transform="matrix(30,0,0,30,2766,1661)"
   id="g342"><path
     d="M 1,0 C 1,0.5523 0.5523,1 0,1 -0.5523,1 -1,0.5523 -1,0 c 0,-0.5523 0.4477,-1 1,-1 0.5523,0 1,0.4477 1,1 z"
     id="path344"
     style="fill:#999933;fill-opacity:1;fill-rule:nonzero;stroke:#999933;stroke-width:0.66670001;stroke-linecap:butt;stroke-linejoin:miter;stroke-miterlimit:10;stroke-opacity:1;stroke-dasharray:none" /></g><g
   transform="matrix(30,0,0,30,3271,2062)"
   id="g346"><path
     d="M 1,0 C 1,0.5523 0.5523,1 0,1 -0.5523,1 -1,0.5523 -1,0 c 0,-0.5523 0.4477,-1 1,-1 0.5523,0 1,0.4477 1,1 z"
     id="path348"
     style="fill:#999933;fill-opacity:1;fill-rule:nonzero;stroke:#999933;stroke-width:0.66670001;stroke-linecap:butt;stroke-linejoin:miter;stroke-miterlimit:10;stroke-opacity:1;stroke-dasharray:none" /></g><g
   transform="matrix(30,0,0,30,3776,2559)"
   id="g350"><path
     d="M 1,0 C 1,0.5523 0.5523,1 0,1 -0.5523,1 -1,0.5523 -1,0 c 0,-0.5523 0.4477,-1 1,-1 0.5523,0 1,0.4477 1,1 z"
     id="path352"
     style="fill:#999933;fill-opacity:1;fill-rule:nonzero;stroke:#999933;stroke-width:0.66670001;stroke-linecap:butt;stroke-linejoin:miter;stroke-miterlimit:10;stroke-opacity:1;stroke-dasharray:none" /></g><g
   transform="matrix(30,0,0,30,4281,3114)"
   id="g354"><path
     d="M 1,0 C 1,0.5523 0.5523,1 0,1 -0.5523,1 -1,0.5523 -1,0 c 0,-0.5523 0.4477,-1 1,-1 0.5523,0 1,0.4477 1,1 z"
     id="path356"
     style="fill:#999933;fill-opacity:1;fill-rule:nonzero;stroke:#999933;stroke-width:0.66670001;stroke-linecap:butt;stroke-linejoin:miter;stroke-miterlimit:10;stroke-opacity:1;stroke-dasharray:none" /></g><g
   transform="matrix(30,0,0,30,4786,3358)"
   id="g358"><path
     d="M 1,0 C 1,0.5523 0.5523,1 0,1 -0.5523,1 -1,0.5523 -1,0 c 0,-0.5523 0.4477,-1 1,-1 0.5523,0 1,0.4477 1,1 z"
     id="path360"
     style="fill:#999933;fill-opacity:1;fill-rule:nonzero;stroke:#999933;stroke-width:0.66670001;stroke-linecap:butt;stroke-linejoin:miter;stroke-miterlimit:10;stroke-opacity:1;stroke-dasharray:none" /></g><g
   transform="matrix(30,0,0,30,5291,3375)"
   id="g362"><path
     d="M 1,0 C 1,0.5523 0.5523,1 0,1 -0.5523,1 -1,0.5523 -1,0 c 0,-0.5523 0.4477,-1 1,-1 0.5523,0 1,0.4477 1,1 z"
     id="path364"
     style="fill:#999933;fill-opacity:1;fill-rule:nonzero;stroke:#999933;stroke-width:0.66670001;stroke-linecap:butt;stroke-linejoin:miter;stroke-miterlimit:10;stroke-opacity:1;stroke-dasharray:none" /></g><g
   transform="matrix(30,0,0,30,5796,3465)"
   id="g366"><path
     d="M 1,0 C 1,0.5523 0.5523,1 0,1 -0.5523,1 -1,0.5523 -1,0 c 0,-0.5523 0.4477,-1 1,-1 0.5523,0 1,0.4477 1,1 z"
     id="path368"
     style="fill:#999933;fill-opacity:1;fill-rule:nonzero;stroke:#999933;stroke-width:0.66670001;stroke-linecap:butt;stroke-linejoin:miter;stroke-miterlimit:10;stroke-opacity:1;stroke-dasharray:none" /></g><g
   transform="matrix(30,0,0,30,6301,3496)"
   id="g370"><path
     d="M 1,0 C 1,0.5523 0.5523,1 0,1 -0.5523,1 -1,0.5523 -1,0 c 0,-0.5523 0.4477,-1 1,-1 0.5523,0 1,0.4477 1,1 z"
     id="path372"
     style="fill:#999933;fill-opacity:1;fill-rule:nonzero;stroke:#999933;stroke-width:0.66670001;stroke-linecap:butt;stroke-linejoin:miter;stroke-miterlimit:10;stroke-opacity:1;stroke-dasharray:none" /></g><g
   transform="matrix(30,0,0,30,6806,3521)"
   id="g374"><path
     d="M 1,0 C 1,0.5523 0.5523,1 0,1 -0.5523,1 -1,0.5523 -1,0 c 0,-0.5523 0.4477,-1 1,-1 0.5523,0 1,0.4477 1,1 z"
     id="path376"
     style="fill:#999933;fill-opacity:1;fill-rule:nonzero;stroke:#999933;stroke-width:0.66670001;stroke-linecap:butt;stroke-linejoin:miter;stroke-miterlimit:10;stroke-opacity:1;stroke-dasharray:none" /></g><g
   transform="matrix(30,0,0,30,7312,3510)"
   id="g378"><path
     d="M 1,0 C 1,0.5523 0.5523,1 0,1 -0.5523,1 -1,0.5523 -1,0 c 0,-0.5523 0.4477,-1 1,-1 0.5523,0 1,0.4477 1,1 z"
     id="path380"
     style="fill:#999933;fill-opacity:1;fill-rule:nonzero;stroke:#999933;stroke-width:0.66670001;stroke-linecap:butt;stroke-linejoin:miter;stroke-miterlimit:10;stroke-opacity:1;stroke-dasharray:none" /></g><g
   transform="matrix(30,0,0,30,7817,3520)"
   id="g382"><path
     d="M 1,0 C 1,0.5523 0.5523,1 0,1 -0.5523,1 -1,0.5523 -1,0 c 0,-0.5523 0.4477,-1 1,-1 0.5523,0 1,0.4477 1,1 z"
     id="path384"
     style="fill:#999933;fill-opacity:1;fill-rule:nonzero;stroke:#999933;stroke-width:0.66670001;stroke-linecap:butt;stroke-linejoin:miter;stroke-miterlimit:10;stroke-opacity:1;stroke-dasharray:none" /></g><text
   transform="matrix(1,0,0,-1,5710,2261)"
   id="text386"><tspan
     x="0 57.720001 115.44 260 404.56 534.56 621.14001 765.70001 895.70001 967.97998 1040.26 1184.8199 1329.38 1401.66 1473.9399 1618.5 1705.08 1849.64 1994.2 2066.48 2138.76 2211.04"
     y="0"
     id="tspan388"
     style="font-size:260px;font-variant:normal;font-weight:normal;writing-mode:lr-tb;fill:#000000;fill-opacity:1;fill-rule:nonzero;stroke:none;font-family:Helvetica;-inkscape-font-specification:Helvetica">linux-pv, buffered I/O</tspan></text>


<path
   d="m 4930,2327 636,0 m -4182,-1090 372,-12 505,183 505,190 505,82 505,20 505,37 505,0 505,-24 505,-5 505,10 505,0 506,-3 505,-8"
   id="path390"
   style="fill:none;stroke:#cc4499;stroke-width:50;stroke-linecap:butt;stroke-linejoin:miter;stroke-miterlimit:10;stroke-opacity:1;stroke-dasharray:none" /><g
   transform="matrix(45,0,0,45,1756,1225)"
   id="g392"><path
     d="M 1,0 C 1,0.5523 0.5523,1 0,1 -0.5523,1 -1,0.5523 -1,0 c 0,-0.5523 0.4477,-1 1,-1 0.5523,0 1,0.4477 1,1 z"
     id="path394"
     style="fill:#cc4499;fill-opacity:1;fill-rule:nonzero;stroke:#cc4499;stroke-width:1.11109996;stroke-linecap:butt;stroke-linejoin:miter;stroke-miterlimit:10;stroke-opacity:1;stroke-dasharray:none" /></g><g
   transform="matrix(45,0,0,45,2261,1408)"
   id="g396"><path
     d="M 1,0 C 1,0.5523 0.5523,1 0,1 -0.5523,1 -1,0.5523 -1,0 c 0,-0.5523 0.4477,-1 1,-1 0.5523,0 1,0.4477 1,1 z"
     id="path398"
     style="fill:#cc4499;fill-opacity:1;fill-rule:nonzero;stroke:#cc4499;stroke-width:1.11109996;stroke-linecap:butt;stroke-linejoin:miter;stroke-miterlimit:10;stroke-opacity:1;stroke-dasharray:none" /></g><g
   transform="matrix(45,0,0,45,2766,1598)"
   id="g400"><path
     d="M 1,0 C 1,0.5523 0.5523,1 0,1 -0.5523,1 -1,0.5523 -1,0 c 0,-0.5523 0.4477,-1 1,-1 0.5523,0 1,0.4477 1,1 z"
     id="path402"
     style="fill:#cc4499;fill-opacity:1;fill-rule:nonzero;stroke:#cc4499;stroke-width:1.11109996;stroke-linecap:butt;stroke-linejoin:miter;stroke-miterlimit:10;stroke-opacity:1;stroke-dasharray:none" /></g><g
   transform="matrix(45,0,0,45,3271,1680)"
   id="g404"><path
     d="M 1,0 C 1,0.5523 0.5523,1 0,1 -0.5523,1 -1,0.5523 -1,0 c 0,-0.5523 0.4477,-1 1,-1 0.5523,0 1,0.4477 1,1 z"
     id="path406"
     style="fill:#cc4499;fill-opacity:1;fill-rule:nonzero;stroke:#cc4499;stroke-width:1.11109996;stroke-linecap:butt;stroke-linejoin:miter;stroke-miterlimit:10;stroke-opacity:1;stroke-dasharray:none" /></g><g
   transform="matrix(45,0,0,45,3776,1700)"
   id="g408"><path
     d="M 1,0 C 1,0.5523 0.5523,1 0,1 -0.5523,1 -1,0.5523 -1,0 c 0,-0.5523 0.4477,-1 1,-1 0.5523,0 1,0.4477 1,1 z"
     id="path410"
     style="fill:#cc4499;fill-opacity:1;fill-rule:nonzero;stroke:#cc4499;stroke-width:1.11109996;stroke-linecap:butt;stroke-linejoin:miter;stroke-miterlimit:10;stroke-opacity:1;stroke-dasharray:none" /></g><g
   transform="matrix(45,0,0,45,4281,1737)"
   id="g412"><path
     d="M 1,0 C 1,0.5523 0.5523,1 0,1 -0.5523,1 -1,0.5523 -1,0 c 0,-0.5523 0.4477,-1 1,-1 0.5523,0 1,0.4477 1,1 z"
     id="path414"
     style="fill:#cc4499;fill-opacity:1;fill-rule:nonzero;stroke:#cc4499;stroke-width:1.11109996;stroke-linecap:butt;stroke-linejoin:miter;stroke-miterlimit:10;stroke-opacity:1;stroke-dasharray:none" /></g><g
   transform="matrix(45,0,0,45,4786,1737)"
   id="g416"><path
     d="M 1,0 C 1,0.5523 0.5523,1 0,1 -0.5523,1 -1,0.5523 -1,0 c 0,-0.5523 0.4477,-1 1,-1 0.5523,0 1,0.4477 1,1 z"
     id="path418"
     style="fill:#cc4499;fill-opacity:1;fill-rule:nonzero;stroke:#cc4499;stroke-width:1.11109996;stroke-linecap:butt;stroke-linejoin:miter;stroke-miterlimit:10;stroke-opacity:1;stroke-dasharray:none" /></g><g
   transform="matrix(45,0,0,45,5291,1713)"
   id="g420"><path
     d="M 1,0 C 1,0.5523 0.5523,1 0,1 -0.5523,1 -1,0.5523 -1,0 c 0,-0.5523 0.4477,-1 1,-1 0.5523,0 1,0.4477 1,1 z"
     id="path422"
     style="fill:#cc4499;fill-opacity:1;fill-rule:nonzero;stroke:#cc4499;stroke-width:1.11109996;stroke-linecap:butt;stroke-linejoin:miter;stroke-miterlimit:10;stroke-opacity:1;stroke-dasharray:none" /></g><g
   transform="matrix(45,0,0,45,5796,1708)"
   id="g424"><path
     d="M 1,0 C 1,0.5523 0.5523,1 0,1 -0.5523,1 -1,0.5523 -1,0 c 0,-0.5523 0.4477,-1 1,-1 0.5523,0 1,0.4477 1,1 z"
     id="path426"
     style="fill:#cc4499;fill-opacity:1;fill-rule:nonzero;stroke:#cc4499;stroke-width:1.11109996;stroke-linecap:butt;stroke-linejoin:miter;stroke-miterlimit:10;stroke-opacity:1;stroke-dasharray:none" /></g><g
   transform="matrix(45,0,0,45,6301,1718)"
   id="g428"><path
     d="M 1,0 C 1,0.5523 0.5523,1 0,1 -0.5523,1 -1,0.5523 -1,0 c 0,-0.5523 0.4477,-1 1,-1 0.5523,0 1,0.4477 1,1 z"
     id="path430"
     style="fill:#cc4499;fill-opacity:1;fill-rule:nonzero;stroke:#cc4499;stroke-width:1.11109996;stroke-linecap:butt;stroke-linejoin:miter;stroke-miterlimit:10;stroke-opacity:1;stroke-dasharray:none" /></g><g
   transform="matrix(45,0,0,45,6806,1718)"
   id="g432"><path
     d="M 1,0 C 1,0.5523 0.5523,1 0,1 -0.5523,1 -1,0.5523 -1,0 c 0,-0.5523 0.4477,-1 1,-1 0.5523,0 1,0.4477 1,1 z"
     id="path434"
     style="fill:#cc4499;fill-opacity:1;fill-rule:nonzero;stroke:#cc4499;stroke-width:1.11109996;stroke-linecap:butt;stroke-linejoin:miter;stroke-miterlimit:10;stroke-opacity:1;stroke-dasharray:none" /></g><g
   transform="matrix(45,0,0,45,7312,1715)"
   id="g436"><path
     d="M 1,0 C 1,0.5523 0.5523,1 0,1 -0.5523,1 -1,0.5523 -1,0 c 0,-0.5523 0.4477,-1 1,-1 0.5523,0 1,0.4477 1,1 z"
     id="path438"
     style="fill:#cc4499;fill-opacity:1;fill-rule:nonzero;stroke:#cc4499;stroke-width:1.11109996;stroke-linecap:butt;stroke-linejoin:miter;stroke-miterlimit:10;stroke-opacity:1;stroke-dasharray:none" /></g><g
   transform="matrix(45,0,0,45,7817,1707)"
   id="g440"><path
     d="M 1,0 C 1,0.5523 0.5523,1 0,1 -0.5523,1 -1,0.5523 -1,0 c 0,-0.5523 0.4477,-1 1,-1 0.5523,0 1,0.4477 1,1 z"
     id="path442"
     style="fill:#cc4499;fill-opacity:1;fill-rule:nonzero;stroke:#cc4499;stroke-width:1.11109996;stroke-linecap:butt;stroke-linejoin:miter;stroke-miterlimit:10;stroke-opacity:1;stroke-dasharray:none" /></g><g
   transform="matrix(45,0,0,45,5248,2327)"
   id="g444"><path
     d="M 1,0 C 1,0.5523 0.5523,1 0,1 -0.5523,1 -1,0.5523 -1,0 c 0,-0.5523 0.4477,-1 1,-1 0.5523,0 1,0.4477 1,1 z"
     id="path446"
     style="fill:#cc4499;fill-opacity:1;fill-rule:nonzero;stroke:#cc4499;stroke-width:1.11109996;stroke-linecap:butt;stroke-linejoin:miter;stroke-miterlimit:10;stroke-opacity:1;stroke-dasharray:none" /></g><path
   d="m 1756,1220 0,11 m -30,-11 60,0 m -60,11 60,0 m 475,175 0,4 m -30,-4 60,0 m -60,4 60,0 m 475,184 0,8 m -30,-8 60,0 m -60,8 60,0 m 475,60 0,36 m -30,-36 60,0 m -60,36 60,0 m 475,-15 0,35 m -30,-35 60,0 m -60,35 60,0 m 475,-3 0,43 m -30,-43 60,0 m -60,43 60,0 m 475,-60 0,77 m -30,-77 60,0 m -60,77 60,0 m 475,-89 0,54 m -30,-54 60,0 m -60,54 60,0 m 475,-57 0,51 m -30,-51 60,0 m -60,51 60,0 m 475,-48 0,63 m -30,-63 60,0 m -60,63 60,0 m 475,-48 0,34 m -30,-34 60,0 m -60,34 60,0 m 476,-51 0,61 m -30,-61 60,0 m -60,61 60,0 m 475,-57 0,37 m -30,-37 60,0 m -60,37 60,0"
   id="path448"
   style="fill:none;stroke:#cc4499;stroke-width:20;stroke-linecap:butt;stroke-linejoin:miter;stroke-miterlimit:10;stroke-opacity:1;stroke-dasharray:none" /><g
   transform="matrix(45,0,0,45,1756,1225)"
   id="g450"><path
     d="M 1,0 C 1,0.5523 0.5523,1 0,1 -0.5523,1 -1,0.5523 -1,0 c 0,-0.5523 0.4477,-1 1,-1 0.5523,0 1,0.4477 1,1 z"
     id="path452"
     style="fill:#cc4499;fill-opacity:1;fill-rule:nonzero;stroke:#cc4499;stroke-width:0.44440001;stroke-linecap:butt;stroke-linejoin:miter;stroke-miterlimit:10;stroke-opacity:1;stroke-dasharray:none" /></g><g
   transform="matrix(45,0,0,45,2261,1408)"
   id="g454"><path
     d="M 1,0 C 1,0.5523 0.5523,1 0,1 -0.5523,1 -1,0.5523 -1,0 c 0,-0.5523 0.4477,-1 1,-1 0.5523,0 1,0.4477 1,1 z"
     id="path456"
     style="fill:#cc4499;fill-opacity:1;fill-rule:nonzero;stroke:#cc4499;stroke-width:0.44440001;stroke-linecap:butt;stroke-linejoin:miter;stroke-miterlimit:10;stroke-opacity:1;stroke-dasharray:none" /></g><g
   transform="matrix(45,0,0,45,2766,1598)"
   id="g458"><path
     d="M 1,0 C 1,0.5523 0.5523,1 0,1 -0.5523,1 -1,0.5523 -1,0 c 0,-0.5523 0.4477,-1 1,-1 0.5523,0 1,0.4477 1,1 z"
     id="path460"
     style="fill:#cc4499;fill-opacity:1;fill-rule:nonzero;stroke:#cc4499;stroke-width:0.44440001;stroke-linecap:butt;stroke-linejoin:miter;stroke-miterlimit:10;stroke-opacity:1;stroke-dasharray:none" /></g><g
   transform="matrix(45,0,0,45,3271,1680)"
   id="g462"><path
     d="M 1,0 C 1,0.5523 0.5523,1 0,1 -0.5523,1 -1,0.5523 -1,0 c 0,-0.5523 0.4477,-1 1,-1 0.5523,0 1,0.4477 1,1 z"
     id="path464"
     style="fill:#cc4499;fill-opacity:1;fill-rule:nonzero;stroke:#cc4499;stroke-width:0.44440001;stroke-linecap:butt;stroke-linejoin:miter;stroke-miterlimit:10;stroke-opacity:1;stroke-dasharray:none" /></g><g
   transform="matrix(45,0,0,45,3776,1700)"
   id="g466"><path
     d="M 1,0 C 1,0.5523 0.5523,1 0,1 -0.5523,1 -1,0.5523 -1,0 c 0,-0.5523 0.4477,-1 1,-1 0.5523,0 1,0.4477 1,1 z"
     id="path468"
     style="fill:#cc4499;fill-opacity:1;fill-rule:nonzero;stroke:#cc4499;stroke-width:0.44440001;stroke-linecap:butt;stroke-linejoin:miter;stroke-miterlimit:10;stroke-opacity:1;stroke-dasharray:none" /></g><g
   transform="matrix(45,0,0,45,4281,1737)"
   id="g470"><path
     d="M 1,0 C 1,0.5523 0.5523,1 0,1 -0.5523,1 -1,0.5523 -1,0 c 0,-0.5523 0.4477,-1 1,-1 0.5523,0 1,0.4477 1,1 z"
     id="path472"
     style="fill:#cc4499;fill-opacity:1;fill-rule:nonzero;stroke:#cc4499;stroke-width:0.44440001;stroke-linecap:butt;stroke-linejoin:miter;stroke-miterlimit:10;stroke-opacity:1;stroke-dasharray:none" /></g><g
   transform="matrix(45,0,0,45,4786,1737)"
   id="g474"><path
     d="M 1,0 C 1,0.5523 0.5523,1 0,1 -0.5523,1 -1,0.5523 -1,0 c 0,-0.5523 0.4477,-1 1,-1 0.5523,0 1,0.4477 1,1 z"
     id="path476"
     style="fill:#cc4499;fill-opacity:1;fill-rule:nonzero;stroke:#cc4499;stroke-width:0.44440001;stroke-linecap:butt;stroke-linejoin:miter;stroke-miterlimit:10;stroke-opacity:1;stroke-dasharray:none" /></g><g
   transform="matrix(45,0,0,45,5291,1713)"
   id="g478"><path
     d="M 1,0 C 1,0.5523 0.5523,1 0,1 -0.5523,1 -1,0.5523 -1,0 c 0,-0.5523 0.4477,-1 1,-1 0.5523,0 1,0.4477 1,1 z"
     id="path480"
     style="fill:#cc4499;fill-opacity:1;fill-rule:nonzero;stroke:#cc4499;stroke-width:0.44440001;stroke-linecap:butt;stroke-linejoin:miter;stroke-miterlimit:10;stroke-opacity:1;stroke-dasharray:none" /></g><g
   transform="matrix(45,0,0,45,5796,1708)"
   id="g482"><path
     d="M 1,0 C 1,0.5523 0.5523,1 0,1 -0.5523,1 -1,0.5523 -1,0 c 0,-0.5523 0.4477,-1 1,-1 0.5523,0 1,0.4477 1,1 z"
     id="path484"
     style="fill:#cc4499;fill-opacity:1;fill-rule:nonzero;stroke:#cc4499;stroke-width:0.44440001;stroke-linecap:butt;stroke-linejoin:miter;stroke-miterlimit:10;stroke-opacity:1;stroke-dasharray:none" /></g><g
   transform="matrix(45,0,0,45,6301,1718)"
   id="g486"><path
     d="M 1,0 C 1,0.5523 0.5523,1 0,1 -0.5523,1 -1,0.5523 -1,0 c 0,-0.5523 0.4477,-1 1,-1 0.5523,0 1,0.4477 1,1 z"
     id="path488"
     style="fill:#cc4499;fill-opacity:1;fill-rule:nonzero;stroke:#cc4499;stroke-width:0.44440001;stroke-linecap:butt;stroke-linejoin:miter;stroke-miterlimit:10;stroke-opacity:1;stroke-dasharray:none" /></g><g
   transform="matrix(45,0,0,45,6806,1718)"
   id="g490"><path
     d="M 1,0 C 1,0.5523 0.5523,1 0,1 -0.5523,1 -1,0.5523 -1,0 c 0,-0.5523 0.4477,-1 1,-1 0.5523,0 1,0.4477 1,1 z"
     id="path492"
     style="fill:#cc4499;fill-opacity:1;fill-rule:nonzero;stroke:#cc4499;stroke-width:0.44440001;stroke-linecap:butt;stroke-linejoin:miter;stroke-miterlimit:10;stroke-opacity:1;stroke-dasharray:none" /></g><g
   transform="matrix(45,0,0,45,7312,1715)"
   id="g494"><path
     d="M 1,0 C 1,0.5523 0.5523,1 0,1 -0.5523,1 -1,0.5523 -1,0 c 0,-0.5523 0.4477,-1 1,-1 0.5523,0 1,0.4477 1,1 z"
     id="path496"
     style="fill:#cc4499;fill-opacity:1;fill-rule:nonzero;stroke:#cc4499;stroke-width:0.44440001;stroke-linecap:butt;stroke-linejoin:miter;stroke-miterlimit:10;stroke-opacity:1;stroke-dasharray:none" /></g><g
   transform="matrix(45,0,0,45,7817,1707)"
   id="g498"><path
     d="M 1,0 C 1,0.5523 0.5523,1 0,1 -0.5523,1 -1,0.5523 -1,0 c 0,-0.5523 0.4477,-1 1,-1 0.5523,0 1,0.4477 1,1 z"
     id="path500"
     style="fill:#cc4499;fill-opacity:1;fill-rule:nonzero;stroke:#cc4499;stroke-width:0.44440001;stroke-linecap:butt;stroke-linejoin:miter;stroke-miterlimit:10;stroke-opacity:1;stroke-dasharray:none" /></g><path
   d="m 1384,4031 0,-2815 6823,0"
   id="path502"
   style="fill:none;stroke:#000000;stroke-width:20;stroke-linecap:butt;stroke-linejoin:miter;stroke-miterlimit:10;stroke-opacity:1;stroke-dasharray:none" /></g><text
     xml:space="preserve"
     style="font-size:40px;font-style:normal;font-weight:normal;line-height:125%;letter-spacing:0px;word-spacing:0px;fill:#000000;fill-opacity:1;stroke:none;font-family:Sans"
     x="20.298569"
     y="589.51642"
     id="text7418"
     sodipodi:linespacing="125%"><tspan
       sodipodi:role="line"
       id="tspan7420"
       x="20.298569"
       y="589.51642">fast PCIe SSD</tspan><tspan
       sodipodi:role="line"
       x="20.298569"
       y="639.51642"
       id="tspan7424">random reads</tspan><tspan
       sodipodi:role="line"
       x="20.298569"
       y="689.51642"
       id="tspan7422" /></text>
</svg>